<svg width="17" height="20" viewBox="0 0 17 20" fill="none" xmlns="http://www.w3.org/2000/svg">
<path d="M15.3333 0H12.25C12.0069 0 11.7737 0.0965771 11.6018 0.268485C11.4299 0.440394 11.3333 0.673552 11.3333 0.916667C11.3333 1.15978 11.4299 1.39294 11.6018 1.56485C11.7737 1.73676 12.0069 1.83333 12.25 1.83333H13.1204L11.5746 3.37875C10.9576 2.65859 10.192 2.08053 9.3304 1.6843C8.46881 1.28806 7.53166 1.08305 6.58333 1.08333C2.95333 1.08333 0 4.03667 0 7.66667C0 10.9858 2.46917 13.7383 5.66667 14.1858V15.75H4.5C4.25689 15.75 4.02373 15.8466 3.85182 16.0185C3.67991 16.1904 3.58333 16.4236 3.58333 16.6667C3.58333 16.9098 3.67991 17.1429 3.85182 17.3148C4.02373 17.4868 4.25689 17.5833 4.5 17.5833H5.66667V19.0833C5.66667 19.3264 5.76324 19.5596 5.93515 19.7315C6.10706 19.9034 6.34022 20 6.58333 20C6.82645 20 7.05961 19.9034 7.23151 19.7315C7.40342 19.5596 7.5 19.3264 7.5 19.0833V17.5833H8.66667C8.90978 17.5833 9.14294 17.4868 9.31485 17.3148C9.48676 17.1429 9.58333 16.9098 9.58333 16.6667C9.58333 16.4236 9.48676 16.1904 9.31485 16.0185C9.14294 15.8466 8.90978 15.75 8.66667 15.75H7.5V14.1858C10.6975 13.7383 13.1667 10.9858 13.1667 7.66667C13.1671 6.73374 12.9683 5.81148 12.5833 4.96167L14.4167 3.12833V4C14.4167 4.24312 14.5132 4.47627 14.6852 4.64818C14.8571 4.82009 15.0902 4.91667 15.3333 4.91667C15.5764 4.91667 15.8096 4.82009 15.9815 4.64818C16.1534 4.47627 16.25 4.24312 16.25 4V0.916667C16.25 0.673552 16.1534 0.440394 15.9815 0.268485C15.8096 0.0965771 15.5764 0 15.3333 0ZM6.58333 12.4167C5.64387 12.4167 4.72551 12.1381 3.94437 11.6161C3.16324 11.0942 2.55442 10.3524 2.19491 9.48441C1.83539 8.61646 1.74132 7.6614 1.9246 6.73999C2.10788 5.81858 2.56028 4.97221 3.22458 4.30791C3.88888 3.64361 4.73524 3.19122 5.65665 3.00794C6.57806 2.82466 7.53313 2.91872 8.40108 3.27824C9.26903 3.63776 10.0109 4.24657 10.5328 5.02771C11.0548 5.80884 11.3333 6.72721 11.3333 7.66667C11.3319 8.92601 10.831 10.1334 9.94051 11.0238C9.05002 11.9143 7.84267 12.4152 6.58333 12.4167Z" fill="#121212"/>
</svg>
