<svg width="33" height="32" viewBox="0 0 33 32" fill="none" xmlns="http://www.w3.org/2000/svg">
<path d="M15.0765 10.1551C14.5645 10.1554 14.0535 10.2355 13.5624 10.3945C12.9032 10.6079 12.2984 10.9574 11.7861 11.4183C11.6639 11.5282 11.5471 11.6444 11.436 11.7666C10.8588 12.4014 10.4576 13.1761 10.2721 14.0137C10.2323 14.1938 10.2026 14.3755 10.1832 14.5579C10.1125 15.2238 10.1781 15.8991 10.3784 16.5421C10.5377 17.0537 10.7788 17.5338 11.0905 17.9645C11.2779 18.2233 11.4907 18.4644 11.7266 18.6837C12.1646 19.0909 12.6715 19.4134 13.2213 19.6374C13.316 19.1217 13.4558 18.6218 13.6364 18.1419C13.5532 18.1029 13.4717 18.0606 13.3921 18.0151L12.6218 17.7209L12.4978 17.6736C12.5332 17.5808 12.57 17.4886 12.608 17.3972C12.5096 17.2926 12.4174 17.1814 12.3322 17.0639C12.115 16.7643 11.9502 16.4339 11.8416 16.0864C11.7048 15.6484 11.6572 15.1835 11.7065 14.7196C11.7199 14.5931 11.7404 14.468 11.7677 14.3449C11.8954 13.7682 12.172 13.2346 12.5701 12.7976C12.6459 12.7144 12.7261 12.6347 12.8105 12.5589C13.1677 12.2381 13.5857 11.9997 14.0352 11.8551C14.3691 11.7476 14.7204 11.6918 15.0769 11.6923M15.0765 10.1551L18.3494 11.3986C18.7963 11.7958 19.1654 12.2696 19.4407 12.7956C18.9373 12.9389 18.4523 13.126 17.9903 13.3526C17.9452 13.2764 17.8971 13.202 17.8462 13.1296L17.4757 12.3816L17.4171 12.2631C17.3271 12.3076 17.238 12.3535 17.1497 12.4005C17.1258 12.382 17.1017 12.3639 17.0772 12.346C16.6869 12.0602 16.2421 11.863 15.7738 11.7646C15.5459 11.7167 15.3124 11.6922 15.0769 11.6923M15.0765 10.1551L15.0769 11.6923M15.0765 10.1551L15.0791 10.1551L15.0769 11.6923M14.5456 17.9554L15.7712 18.2412C16.3355 17.0967 17.2138 16.1347 18.2935 15.4677L14.5456 17.9554ZM14.5456 17.9554C15.2433 16.4053 16.4155 15.1162 17.8924 14.2746L14.5456 17.9554ZM8.89784 4.37394L8.89766 4.37427L8.67833 4.76923H7.53846C6.06957 4.76923 4.66084 5.35275 3.62218 6.39141C2.58351 7.43007 2 8.8388 2 10.3077V20.7692C2 22.2381 2.58351 23.6469 3.62218 24.6855C4.66084 25.7242 6.06957 26.3077 7.53846 26.3077H14.4591H14.6952C16.2846 28.5423 18.8952 30 21.8462 30C26.6892 30 30.6154 26.0738 30.6154 21.2308C30.6154 18.8641 29.6778 16.7164 28.1538 15.1388V14.4886V10.3077C28.1538 8.8388 27.5703 7.43007 26.5317 6.39141C25.493 5.35275 24.0843 4.76923 22.6154 4.76923H21.4757L21.256 4.37394C21.256 4.37388 21.2559 4.37383 21.2559 4.37378C21.2559 4.37375 21.2559 4.37372 21.2559 4.37369C20.8562 3.65432 20.2714 3.05491 19.5621 2.63756L18.5616 4.33779L19.5621 2.63756C18.8527 2.22015 18.0447 2.00003 17.2216 2H17.2215H12.9323H12.9322C12.1092 2.00003 11.3011 2.22015 10.5918 2.63756C9.88239 3.05496 9.29756 3.65446 8.89784 4.37394Z" fill="#8A8A8E" stroke="white" stroke-width="4"/>
</svg>
