<svg width="21" height="20" viewBox="0 0 21 20" fill="none" xmlns="http://www.w3.org/2000/svg">
<path d="M4.04383 15.9779C4.58466 16.5235 5.22792 16.9569 5.93669 17.2532C6.64545 17.5495 7.40577 17.7029 8.17398 17.7046C8.9422 17.7063 9.70318 17.5562 10.4132 17.263C11.1233 16.9698 11.7684 16.5393 12.3117 15.996C12.8549 15.4528 13.2854 14.8077 13.5786 14.0976C13.8718 13.3876 14.0219 12.6266 14.0202 11.8584C14.0186 11.0902 13.8652 10.3298 13.5688 9.62107C13.2725 8.9123 12.8391 8.26904 12.2936 7.72821C11.1979 6.64214 9.71669 6.03429 8.17398 6.03766C6.63128 6.04104 5.15272 6.65538 4.06186 7.74624C2.97099 8.8371 2.35666 10.3157 2.35328 11.8584C2.3499 13.4011 2.95776 14.8823 4.04383 15.9779ZM13.0601 5.31198L16.0387 2.3334H14.2688C13.9593 2.3334 13.6626 2.21048 13.4438 1.99168C13.225 1.77289 13.1021 1.47613 13.1021 1.1667C13.1021 0.857276 13.225 0.560522 13.4438 0.341723C13.6626 0.122925 13.9593 5.28232e-06 14.2688 5.28232e-06H18.9356C19.0889 -0.000456828 19.2408 0.0294054 19.3826 0.0878738C19.5244 0.146342 19.6532 0.232263 19.7616 0.340693C19.87 0.449123 19.9559 0.577922 20.0144 0.719681C20.0729 0.86144 20.1027 1.01336 20.1023 1.1667V5.8335C20.1023 6.14292 19.9793 6.43968 19.7605 6.65848C19.5417 6.87727 19.245 7.0002 18.9356 7.0002C18.6261 7.0002 18.3294 6.87727 18.1106 6.65848C17.8918 6.43968 17.7689 6.14292 17.7689 5.8335V3.90261L14.7098 6.96169C15.9378 8.61611 16.4954 10.6735 16.2707 12.7215C16.046 14.7696 15.0558 16.6572 13.4983 18.0061C11.9408 19.3549 9.93115 20.0654 7.87197 19.9953C5.81278 19.9251 3.85616 19.0794 2.39412 17.6276C0.933218 16.1678 0.079657 14.2087 0.00529966 12.1447C-0.0690577 10.0808 0.641311 8.06533 1.99337 6.50414C3.34544 4.94295 5.23878 3.95199 7.29218 3.73079C9.34558 3.50959 11.4065 4.07457 13.0601 5.31198Z" fill="#121212"/>
</svg>
