<svg width="28" height="28" viewBox="0 0 28 28" fill="none" xmlns="http://www.w3.org/2000/svg">
<path d="M4.05027 4.0493L4.05027 4.0493C5.21625 2.88412 6.66391 2.41362 8.24722 2.20082C9.74261 1.99984 11.6228 1.99991 13.8628 2L14 2L14.1372 2C16.3772 1.99991 18.2576 1.99984 19.753 2.20082C21.3361 2.41358 22.7843 2.8841 23.9497 4.05027C25.1153 5.21611 25.5861 6.6637 25.799 8.24705C26.0002 9.74252 26.0001 11.6228 26 13.8628L26 14L26 14.1372C26.0001 16.3772 26.0002 18.2577 25.799 19.7532C25.5861 21.3362 25.1154 22.7843 23.949 23.9495L4.05027 4.0493ZM4.05027 4.0493L4.04882 4.05075C2.88418 5.21699 2.41365 6.66419 2.20083 8.24757C1.99984 9.74285 1.99991 11.6229 2 13.8628L2 14L2 14.1372C1.99991 16.3772 1.99984 18.2574 2.20083 19.7527C2.41362 21.3358 2.88416 22.7836 4.04979 23.9492L4.05027 23.9497C5.21645 25.1151 6.66376 25.586 8.2474 25.799C9.74275 26.0002 11.6228 26.0001 13.8627 26L14 26L14.1373 26C16.3772 26.0001 18.2575 26.0002 19.7529 25.799C21.3356 25.5861 22.7829 25.1155 23.9482 23.9502L4.05027 4.0493ZM13.2929 13.2929C13.4804 13.1054 13.7348 13 14 13C14.2652 13 14.5196 13.1054 14.7071 13.2929C14.8946 13.4804 15 13.7348 15 14C15 14.2652 14.8946 14.5196 14.7071 14.7071C14.5196 14.8946 14.2652 15 14 15C13.7348 15 13.4804 14.8946 13.2929 14.7071C13.1054 14.5196 13 14.2652 13 14C13 13.7348 13.1054 13.4804 13.2929 13.2929ZM9 14C9 13.7348 9.10536 13.4804 9.29289 13.2929C9.48043 13.1054 9.73478 13 10 13C10.2321 13 10.4558 13.0807 10.6338 13.2265C10.6592 13.2473 10.6837 13.2695 10.7071 13.2929C10.8946 13.4804 11 13.7348 11 14C11 14.2652 10.8946 14.5196 10.7071 14.7071C10.5196 14.8946 10.2652 15 10 15C9.76793 15 9.54419 14.9193 9.36624 14.7735C9.34082 14.7527 9.31634 14.7305 9.29289 14.7071C9.10536 14.5196 9 14.2652 9 14ZM17.2929 13.2929C17.4804 13.1054 17.7348 13 18 13C18.2652 13 18.5196 13.1054 18.7071 13.2929C18.8946 13.4804 19 13.7348 19 14C19 14.2321 18.9193 14.4558 18.7735 14.6338C18.7527 14.6592 18.7305 14.6837 18.7071 14.7071C18.5196 14.8946 18.2652 15 18 15C17.7348 15 17.4804 14.8946 17.2929 14.7071C17.1054 14.5196 17 14.2652 17 14C17 13.7679 17.0807 13.5442 17.2265 13.3662C17.2473 13.3408 17.2695 13.3163 17.2929 13.2929Z" fill="#8A8A8E" stroke="white" stroke-width="4"/>
</svg>
