<svg width="32" height="32" viewBox="0 0 32 32" fill="none" xmlns="http://www.w3.org/2000/svg">
<path d="M4.34307 4.3421L4.34307 4.3421C5.65555 3.03052 7.29431 2.48682 9.14995 2.23742C10.9175 1.99987 13.1507 1.99993 15.8589 2L16 2L16.1411 2C18.8494 1.99993 21.0828 1.99987 22.8504 2.23742C24.7055 2.48675 26.3446 3.03036 27.6562 4.34259L4.34307 4.3421ZM4.34307 4.3421L4.34162 4.34355C3.03058 5.65639 2.48685 7.29469 2.23743 9.15037C1.99987 10.9178 1.99993 13.1507 2 15.8589L2 16L2 16.1411C1.99993 18.8494 1.99987 21.0825 2.23743 22.8499C2.48682 24.7054 3.03056 26.3442 4.34259 27.6562L4.34307 27.6567C5.65585 28.9686 7.29426 29.5128 9.1502 29.7624C10.9177 30.0001 13.1506 30.0001 15.8588 30L16 30L16.1412 30C18.8494 30.0001 21.0826 30.0001 22.8501 29.7624C24.7051 29.5129 26.3435 28.969 27.6552 27.6572M4.34307 4.3421L27.6552 27.6572M27.6552 27.6572C27.6555 27.6569 27.6557 27.6567 27.656 27.6565C28.9689 26.345 29.5129 24.7058 29.7624 22.8505C30.0001 21.0829 30.0001 18.8494 30 16.1412L30 16L30 15.8588C30.0001 13.1506 30.0001 10.9174 29.7624 9.14977C29.5128 7.29411 28.9688 5.65542 27.6567 4.34307L16 4C10.3432 4 7.5148 4 5.7568 5.7568C4 7.516 4 10.3432 4 16C4 21.6568 4 24.4852 5.7568 26.242C7.516 28 10.3432 28 16 28C21.6568 28 24.4852 28 26.242 26.242L27.6552 27.6572ZM10.6343 16.5657L10.3515 16.8485L10.6343 15.4343M10.6343 16.5657C10.7843 16.7157 10.9878 16.8 11.2 16.8C11.4122 16.8 11.6157 16.7157 11.7657 16.5657C11.9157 16.4157 12 16.2122 12 16C12 15.7878 11.9157 15.5843 11.7657 15.4343C11.6157 15.2843 11.4122 15.2 11.2 15.2C10.9878 15.2 10.7843 15.2843 10.6343 15.4343M10.6343 16.5657C10.4843 16.4157 10.4 16.2122 10.4 16C10.4 15.7878 10.4843 15.5843 10.6343 15.4343M10.6343 16.5657L10.3515 15.1515L10.6343 15.4343M10.6343 16.5657L11.2 16L10.6343 16.5657ZM16 15.2C15.7878 15.2 15.5843 15.2843 15.4343 15.4343C15.2843 15.5843 15.2 15.7878 15.2 16C15.2 16.2122 15.2843 16.4157 15.4343 16.5657C15.5843 16.7157 15.7878 16.8 16 16.8C16.2122 16.8 16.4157 16.7157 16.5657 16.5657M16 15.2L16.5657 16.5657M16 15.2C16.2122 15.2 16.4157 15.2843 16.5657 15.4343M16 15.2L16.8485 15.1515L16.5657 15.4343M16.5657 16.5657L16.8485 16.8485L16.5657 15.4343M16.5657 16.5657C16.7157 16.4157 16.8 16.2122 16.8 16C16.8 15.7878 16.7157 15.5843 16.5657 15.4343M20.2343 15.4343C20.3843 15.2843 20.5878 15.2 20.8 15.2C21.0122 15.2 21.2157 15.2843 21.3657 15.4343C21.5157 15.5843 21.6 15.7878 21.6 16C21.6 16.2122 21.5157 16.4157 21.3657 16.5657C21.2157 16.7157 21.0122 16.8 20.8 16.8C20.5878 16.8 20.3843 16.7157 20.2343 16.5657C20.0843 16.4157 20 16.2122 20 16C20 15.7878 20.0843 15.5843 20.2343 15.4343Z" fill="#121212" stroke="white" stroke-width="4"/>
</svg>
