<svg width="13" height="20" viewBox="0 0 13 20" fill="none" xmlns="http://www.w3.org/2000/svg">
<path d="M12.9412 6.47059C12.9412 2.89412 10.0471 0 6.47059 0C2.89412 0 0 2.89412 0 6.47059C0 9.64706 2.28235 12.2706 5.29412 12.8235V15.2941H2.94118V17.6471H5.29412V20H7.64706V17.6471H10V15.2941H7.64706V12.8235C10.6588 12.2706 12.9412 9.64706 12.9412 6.47059ZM2.35294 6.47059C2.35294 4.2 4.2 2.35294 6.47059 2.35294C8.74118 2.35294 10.5882 4.2 10.5882 6.47059C10.5882 8.74118 8.74118 10.5882 6.47059 10.5882C4.2 10.5882 2.35294 8.74118 2.35294 6.47059Z" fill="#121212"/>
</svg>
