<svg width="21" height="18" viewBox="0 0 21 18" fill="none" xmlns="http://www.w3.org/2000/svg">
<path d="M11.2563 1.62761e-06C12.6063 -0.000810508 13.9392 0.302314 15.1561 0.886893C16.373 1.47147 17.4427 2.32251 18.2858 3.37688H4.22673C5.06986 2.32251 6.13955 1.47147 7.35644 0.886893C8.57334 0.302314 9.90624 -0.000810508 11.2563 1.62761e-06ZM19.1356 10.1306H20.1915C19.9026 12.4014 18.7598 14.4768 16.9956 15.9353C15.2313 17.3937 12.9779 18.1257 10.6934 17.9823C8.40889 17.839 6.26466 16.8311 4.69654 15.1636C3.12842 13.4961 2.25409 11.294 2.25125 9.00501H3.37688V10.1306H4.50251V11.2563H11.2563V10.1306H12.3819V11.2563H19.1356V10.1306ZM6.962 12.8772C6.84606 12.9711 6.77216 13.1072 6.75654 13.2556C6.74092 13.404 6.78486 13.5525 6.8787 13.6685C7.40633 14.3213 8.07328 14.8478 8.83072 15.2095C9.58816 15.5712 10.4169 15.7588 11.2563 15.7588C13.0235 15.7588 14.6028 14.9427 15.6338 13.6685C15.6803 13.611 15.715 13.5449 15.736 13.474C15.7569 13.4031 15.7637 13.3287 15.7559 13.2552C15.7481 13.1816 15.7259 13.1104 15.6906 13.0454C15.6552 12.9805 15.6075 12.9231 15.55 12.8766C15.4925 12.8301 15.4264 12.7954 15.3555 12.7745C15.2845 12.7535 15.2102 12.7467 15.1367 12.7545C15.0631 12.7623 14.9918 12.7845 14.9269 12.8198C14.8619 12.8552 14.8046 12.903 14.7581 12.9605C14.3361 13.4828 13.8026 13.904 13.1966 14.1935C12.5907 14.4829 11.9278 14.6331 11.2563 14.6331C10.5848 14.6331 9.9218 14.4829 9.31589 14.1935C8.70998 13.904 8.17647 13.4828 7.75444 12.9605C7.70793 12.9029 7.65051 12.8551 7.58549 12.8197C7.52046 12.7844 7.44911 12.7622 7.3755 12.7544C7.30189 12.7467 7.22748 12.7536 7.15653 12.7746C7.08557 12.7957 7.01947 12.8305 6.962 12.8772ZM20.2613 4.50251H3.37688V5.62813H2.25125V6.75376H1.12563V7.87939H0V10.1306H1.12563V7.87939H2.25125V6.75376H4.50251V9.00501H5.62813V10.1306H10.1306V9.00501H11.2563V6.75376H12.3819V9.00501H13.5075V10.1306H18.01V9.00501H19.1356V6.75376H20.2613V4.50251ZM6.75376 6.75376V7.87939H7.87938V9.00501H6.75376V7.87939H5.62813V6.75376H6.75376ZM14.6331 6.75376V7.87939H15.7588V9.00501H14.6331V7.87939H13.5075V6.75376H14.6331Z" fill="#121212"/>
</svg>
