<svg width="47" height="47" viewBox="0 0 47 47" fill="none" xmlns="http://www.w3.org/2000/svg">
<rect width="47" height="47" rx="23.5" fill="#121212"/>
<path d="M24.55 17.55C24.55 17.2715 24.4394 17.0045 24.2425 16.8075C24.0455 16.6106 23.7785 16.5 23.5 16.5C23.2215 16.5 22.9545 16.6106 22.7575 16.8075C22.5606 17.0045 22.45 17.2715 22.45 17.55V22.45H17.55C17.2715 22.45 17.0045 22.5606 16.8075 22.7575C16.6106 22.9545 16.5 23.2215 16.5 23.5C16.5 23.7785 16.6106 24.0455 16.8075 24.2425C17.0045 24.4394 17.2715 24.55 17.55 24.55H22.45V29.45C22.45 29.7285 22.5606 29.9955 22.7575 30.1925C22.9545 30.3894 23.2215 30.5 23.5 30.5C23.7785 30.5 24.0455 30.3894 24.2425 30.1925C24.4394 29.9955 24.55 29.7285 24.55 29.45V24.55H29.45C29.7285 24.55 29.9955 24.4394 30.1925 24.2425C30.3894 24.0455 30.5 23.7785 30.5 23.5C30.5 23.2215 30.3894 22.9545 30.1925 22.7575C29.9955 22.5606 29.7285 22.45 29.45 22.45H24.55V17.55Z" fill="white"/>
</svg>
