<svg width="20" height="24" viewBox="0 0 20 24" fill="none" xmlns="http://www.w3.org/2000/svg">
<path fill-rule="evenodd" clip-rule="evenodd" d="M14.7711 15.9039C14.213 15.9038 13.6647 16.0506 13.1812 16.3296C12.6978 16.6085 12.2963 17.0097 12.017 17.493C11.7377 17.9762 11.5905 18.5244 11.5901 19.0825C11.5897 19.6407 11.7362 20.1891 12.0149 20.6727L16.3592 16.3284C15.8765 16.0494 15.3286 15.903 14.7711 15.9039ZM17.5702 17.5717L13.2583 21.8836C13.8609 22.2102 14.553 22.3334 15.2314 22.2347C15.9097 22.1361 16.538 21.8209 17.0227 21.3362C17.5074 20.8515 17.8226 20.2232 17.9212 19.5448C18.0199 18.8665 17.8967 18.1744 17.5702 17.5717ZM9.85547 19.0846C9.85547 18.4391 9.98262 17.7999 10.2297 17.2035C10.4767 16.6071 10.8388 16.0652 11.2952 15.6087C11.7517 15.1522 12.2936 14.7902 12.89 14.5431C13.4864 14.2961 14.1256 14.1689 14.7711 14.1689C15.4167 14.1689 16.0559 14.2961 16.6523 14.5431C17.2487 14.7902 17.7906 15.1522 18.247 15.6087C18.7035 16.0652 19.0656 16.6071 19.3126 17.2035C19.5596 17.7999 19.6868 18.4391 19.6868 19.0846C19.6868 20.3883 19.1689 21.6386 18.247 22.5605C17.3252 23.4824 16.0748 24.0003 14.7711 24.0003C13.4674 24.0003 12.2171 23.4824 11.2952 22.5605C10.3734 21.6386 9.85547 20.3883 9.85547 19.0846Z" fill="#121212"/>
<path d="M14.193 4.62651C14.193 5.85353 13.7056 7.0303 12.8379 7.89794C11.9703 8.76558 10.7935 9.25301 9.56649 9.25301C8.33946 9.25301 7.16269 8.76558 6.29505 7.89794C5.42742 7.0303 4.93998 5.85353 4.93998 4.62651C4.93998 3.39948 5.42742 2.22271 6.29505 1.35507C7.16269 0.487434 8.33946 0 9.56649 0C10.7935 0 11.9703 0.487434 12.8379 1.35507C13.7056 2.22271 14.193 3.39948 14.193 4.62651ZM12.2209 12.9403C11.2793 13.3316 10.4403 13.9341 9.76856 14.7013C9.09685 15.4685 8.61047 16.3798 8.34699 17.3648C8.08351 18.3499 8.04999 19.3823 8.249 20.3824C8.44802 21.3825 8.87425 22.3234 9.49478 23.1325C0.313476 23.121 0.313477 20.795 0.313477 17.9277C0.313477 15.0535 4.45651 12.7229 9.56649 12.7229C10.4895 12.7229 11.3801 12.7992 12.2209 12.9403Z" fill="#121212"/>
</svg>
