<svg width="21" height="24" viewBox="0 0 21 24" fill="none" xmlns="http://www.w3.org/2000/svg">
<path fill-rule="evenodd" clip-rule="evenodd" d="M15.271 15.9039C14.7129 15.9038 14.1646 16.0506 13.6812 16.3295C13.1977 16.6084 12.7962 17.0097 12.5169 17.4929C12.2376 17.9761 12.0904 18.5243 12.0901 19.0824C12.0897 19.6406 12.2362 20.1889 12.5148 20.6725L16.8591 16.3283C16.3764 16.0494 15.8285 15.9029 15.271 15.9039ZM18.07 17.5717L13.7582 21.8835C14.3609 22.2101 15.0529 22.3332 15.7312 22.2345C16.4096 22.1359 17.0379 21.8208 17.5226 21.3361C18.0073 20.8514 18.3224 20.2231 18.4211 19.5447C18.5197 18.8664 18.3966 18.1743 18.07 17.5717ZM10.3555 19.0845C10.3555 18.439 10.4826 17.7998 10.7296 17.2034C10.9767 16.607 11.3388 16.0651 11.7952 15.6087C12.2517 15.1522 12.7935 14.7902 13.3899 14.5431C13.9863 14.2961 14.6255 14.1689 15.271 14.1689C15.9166 14.1689 16.5558 14.2961 17.1521 14.5431C17.7485 14.7902 18.2904 15.1522 18.7469 15.6087C19.2033 16.0651 19.5654 16.607 19.8124 17.2034C20.0595 17.7998 20.1866 18.439 20.1866 19.0845C20.1866 20.3882 19.6687 21.6385 18.7469 22.5603C17.825 23.4822 16.5747 24.0001 15.271 24.0001C13.9673 24.0001 12.7171 23.4822 11.7952 22.5603C10.8734 21.6385 10.3555 20.3882 10.3555 19.0845Z" fill="black"/>
<path d="M14.6927 4.62642C14.6927 5.85342 14.2053 7.03017 13.3377 7.89779C12.4701 8.76541 11.2933 9.25283 10.0663 9.25283C8.83931 9.25283 7.66256 8.76541 6.79494 7.89779C5.92732 7.03017 5.43989 5.85342 5.43989 4.62642C5.43989 3.39941 5.92732 2.22267 6.79494 1.35505C7.66256 0.487425 8.83931 0 10.0663 0C11.2933 0 12.4701 0.487425 13.3377 1.35505C14.2053 2.22267 14.6927 3.39941 14.6927 4.62642ZM12.7207 12.9401C11.7791 13.3314 10.9401 13.9339 10.2684 14.701C9.59667 15.4682 9.1103 16.3795 8.84683 17.3645C8.58336 18.3495 8.54983 19.3819 8.74885 20.382C8.94786 21.382 9.37409 22.323 9.9946 23.1321C0.813476 23.1205 0.813477 20.7946 0.813477 17.9274C0.813477 15.0532 4.95643 12.7226 10.0663 12.7226C10.9893 12.7226 11.8799 12.799 12.7207 12.9401Z" fill="black"/>
</svg>
