<svg width="50" height="48" viewBox="0 0 50 48" fill="none" xmlns="http://www.w3.org/2000/svg">
<path d="M13.3286 5.27076L13.3284 5.27109L12.5819 6.61539H9.89744C7.80291 6.61539 5.79416 7.44743 4.31311 8.92849C2.83205 10.4095 2 12.4183 2 14.5128V31.9487C2 34.0432 2.83205 36.052 4.3131 37.533C5.79416 39.0141 7.80291 39.8462 9.89744 39.8462H21.4318H22.5345C24.8922 43.5459 29.0314 46 33.7436 46C41.0789 46 47.0256 40.0533 47.0256 32.718C47.0256 28.9435 45.4511 25.5367 42.9231 23.1185V21.481V14.5128C42.9231 12.4183 42.091 10.4095 40.61 8.92849C39.1289 7.44743 37.1202 6.61539 35.0256 6.61539H32.3417L31.5945 5.27076C31.5944 5.27067 31.5944 5.27059 31.5943 5.27051C31.0436 4.27934 30.2379 3.45345 29.2606 2.87841C28.2833 2.30332 27.17 2.00004 26.036 2H26.0359H18.8872H18.8871C17.7531 2.00004 16.6398 2.30332 15.6624 2.87841C14.6851 3.4535 13.8793 4.27948 13.3286 5.27076Z" fill="#F2243E" stroke="white" stroke-width="4"/>
</svg>
