<svg width="28" height="28" viewBox="0 0 28 28" fill="none" xmlns="http://www.w3.org/2000/svg">
<path fill-rule="evenodd" clip-rule="evenodd" d="M1.99998 14C1.99998 20.6276 7.37239 26 14 26C15.92 26 17.7344 25.5488 19.3424 24.7472C19.7672 24.5277 20.2575 24.4709 20.7212 24.5876L23.3924 25.3028C23.6568 25.3734 23.9351 25.3731 24.1994 25.3021C24.4636 25.2311 24.7046 25.0918 24.898 24.8983C25.0914 24.7047 25.2306 24.4637 25.3014 24.1994C25.3722 23.9351 25.3723 23.6567 25.3016 23.3924L24.5876 20.7212C24.4715 20.2578 24.5286 19.7678 24.7484 19.3436C25.5744 17.6836 26.0029 15.8542 26 14C26 7.3724 20.6276 2 14 2C7.37239 2 1.99998 7.3724 1.99998 14ZM19.4 12.9296C19.4 14.5724 17.8172 16.2956 16.3652 17.5304C15.3776 18.3704 14.8832 18.7916 14 18.7916C13.1168 18.7916 12.6224 18.3716 11.6348 17.5304C10.1828 16.2944 8.59999 14.5724 8.59999 12.9296C8.59999 9.7172 11.57 8.5184 14 11C16.43 8.5184 19.4 9.7172 19.4 12.9296Z" fill="#F2243E"/>
</svg>
