<svg width="23" height="25" viewBox="0 0 23 25" fill="none" xmlns="http://www.w3.org/2000/svg">
<path d="M1.98597 21.0691C1.98597 21.979 2.34744 22.8517 2.99087 23.4951C3.63429 24.1385 4.50696 24.5 5.4169 24.5H10.3489C10.4057 24.5 10.4603 24.4774 10.5005 24.4372C10.5407 24.397 10.5633 24.3424 10.5633 24.2856V14.4217C10.5633 14.3648 10.5407 14.3102 10.5005 14.27C10.4603 14.2298 10.4057 14.2072 10.3489 14.2072H2.41484C2.30109 14.2072 2.19201 14.2524 2.11158 14.3328C2.03115 14.4133 1.98597 14.5223 1.98597 14.6361V21.0691ZM10.5633 12.2773V6.48764H12.2787V12.2773C12.2787 12.3342 12.3013 12.3887 12.3416 12.429C12.3818 12.4692 12.4363 12.4918 12.4932 12.4918H19.9983C20.2905 12.4918 20.5806 12.4419 20.8561 12.3443C21.3573 12.1664 21.7913 11.8377 22.0984 11.4034C22.4055 10.9691 22.5708 10.4505 22.5715 9.91857V9.06083C22.5715 8.37838 22.3004 7.72388 21.8179 7.24131C21.3353 6.75874 20.6808 6.48764 19.9983 6.48764H17.8251C17.8064 6.48734 17.7881 6.48217 17.772 6.47264C17.756 6.46311 17.7427 6.44955 17.7335 6.4333C17.7243 6.41705 17.7195 6.39867 17.7195 6.38C17.7196 6.36132 17.7246 6.34299 17.7339 6.32682C18.2302 5.48886 18.3914 4.49425 18.1852 3.54242C17.979 2.59059 17.4205 1.75192 16.6218 1.19456C15.8232 0.637204 14.8433 0.402372 13.8788 0.537151C12.9142 0.671931 12.0363 1.16636 11.421 1.92129C10.8057 1.16636 9.92778 0.671931 8.96324 0.537151C7.99869 0.402372 7.01885 0.637204 6.22019 1.19456C5.42152 1.75192 4.86308 2.59059 4.65683 3.54242C4.45059 4.49425 4.61179 5.48886 5.10811 6.32682C5.11745 6.34299 5.12241 6.36132 5.12248 6.38C5.12256 6.39867 5.11776 6.41705 5.10855 6.4333C5.09934 6.44955 5.08605 6.46311 5.06999 6.47264C5.05393 6.48217 5.03565 6.48734 5.01698 6.48764H2.8437C2.16125 6.48764 1.50675 6.75874 1.02418 7.24131C0.541612 7.72388 0.270508 8.37838 0.270508 9.06083V9.91857C0.271265 10.4505 0.436534 10.9691 0.743656 11.4034C1.05078 11.8377 1.48471 12.1664 1.98597 12.3443C2.26141 12.4419 2.55149 12.4918 2.8437 12.4918H10.3489C10.4057 12.4918 10.4603 12.4692 10.5005 12.429C10.5407 12.3887 10.5633 12.3342 10.5633 12.2773ZM12.2787 4.34331C12.2787 3.9192 12.4045 3.50462 12.6401 3.15199C12.8758 2.79935 13.2107 2.52451 13.6025 2.36221C13.9943 2.19991 14.4255 2.15745 14.8414 2.24019C15.2574 2.32293 15.6395 2.52715 15.9393 2.82704C16.2392 3.12693 16.4435 3.50902 16.5262 3.92497C16.6089 4.34093 16.5665 4.77209 16.4042 5.16391C16.2419 5.55574 15.967 5.89063 15.6144 6.12626C15.2618 6.36188 14.8472 6.48764 14.4231 6.48764H12.2787V4.34331ZM8.26564 2.20434C8.55941 2.18329 8.85437 2.22297 9.13213 2.32093C9.40989 2.41888 9.66449 2.573 9.88006 2.77369C10.0956 2.97437 10.2676 3.21731 10.3851 3.48736C10.5026 3.75741 10.5633 4.04879 10.5633 4.34331V6.48764H8.41896C7.86448 6.48622 7.33211 6.27007 6.93358 5.88456C6.53505 5.49905 6.30134 4.97416 6.2815 4.42003C6.26167 3.86591 6.45724 3.32565 6.82719 2.91263C7.19713 2.49961 7.71268 2.24595 8.26564 2.20488V2.20434ZM12.4932 24.5H17.4251C18.3351 24.5 19.2077 24.1385 19.8512 23.4951C20.4946 22.8517 20.8561 21.979 20.8561 21.0691V14.6361C20.8561 14.5223 20.8109 14.4133 20.7305 14.3328C20.65 14.2524 20.5409 14.2072 20.4272 14.2072H12.4932C12.4363 14.2072 12.3818 14.2298 12.3416 14.27C12.3013 14.3102 12.2787 14.3648 12.2787 14.4217V24.2856C12.2787 24.3424 12.3013 24.397 12.3416 24.4372C12.3818 24.4774 12.4363 24.5 12.4932 24.5Z" fill="#121212"/>
</svg>
