<svg width="27" height="22" viewBox="0 0 27 22" fill="none" xmlns="http://www.w3.org/2000/svg">
<path d="M10.3635 6.48059e-07C9.38213 -0.000510562 8.42472 0.301435 7.62326 0.864223C6.8218 1.42701 6.21574 2.22294 5.8886 3.14231H0.876038V6.28462H5.8886C6.21529 7.20458 6.82113 8.0012 7.6226 8.56469C8.42407 9.12817 9.38172 9.43077 10.3635 9.43077C11.3454 9.43077 12.303 9.12817 13.1045 8.56469C13.9059 8.0012 14.5118 7.20458 14.8385 6.28462H26.176V3.14231H14.8385C14.5113 2.22294 13.9053 1.42701 13.1038 0.864223C12.3024 0.301435 11.3449 -0.000510562 10.3635 6.48059e-07ZM16.6885 12.5692C15.7071 12.5687 14.7497 12.8707 13.9483 13.4335C13.1468 13.9962 12.5407 14.7922 12.2136 15.7115H0.876038V18.8538H12.2136C12.5403 19.7738 13.1461 20.5704 13.9476 21.1339C14.7491 21.6974 15.7067 22 16.6885 22C17.6704 22 18.628 21.6974 19.4295 21.1339C20.2309 20.5704 20.8368 19.7738 21.1635 18.8538H26.176V15.7115H21.1635C20.8363 14.7922 20.2303 13.9962 19.4288 13.4335C18.6274 12.8707 17.6699 12.5687 16.6885 12.5692Z" fill="#121212"/>
</svg>
