<svg width="20" height="21" viewBox="0 0 20 21" fill="none" xmlns="http://www.w3.org/2000/svg">
<path d="M7.91536 3.83333H12.082C12.082 3.2808 11.8625 2.7509 11.4718 2.36019C11.0811 1.96949 10.5512 1.75 9.9987 1.75C9.44616 1.75 8.91626 1.96949 8.52556 2.36019C8.13486 2.7509 7.91536 3.2808 7.91536 3.83333ZM6.66536 3.83333C6.66536 2.94928 7.01655 2.10143 7.64168 1.47631C8.2668 0.85119 9.11464 0.5 9.9987 0.5C10.8828 0.5 11.7306 0.85119 12.3557 1.47631C12.9808 2.10143 13.332 2.94928 13.332 3.83333H18.5404C18.7061 3.83333 18.8651 3.89918 18.9823 4.01639C19.0995 4.1336 19.1654 4.29257 19.1654 4.45833C19.1654 4.62409 19.0995 4.78306 18.9823 4.90028C18.8651 5.01749 18.7061 5.08333 18.5404 5.08333H17.4487L16.4345 17.2525C16.3607 18.1378 15.957 18.963 15.3033 19.5645C14.6496 20.166 13.7937 20.4999 12.9054 20.5H7.09203C6.20369 20.4999 5.34781 20.166 4.69412 19.5645C4.04042 18.963 3.63665 18.1378 3.56286 17.2525L2.5487 5.08333H1.45703C1.29127 5.08333 1.1323 5.01749 1.01509 4.90028C0.897879 4.78306 0.832031 4.62409 0.832031 4.45833C0.832031 4.29257 0.897879 4.1336 1.01509 4.01639C1.1323 3.89918 1.29127 3.83333 1.45703 3.83333H6.66536ZM8.7487 8.625C8.7487 8.45924 8.68285 8.30027 8.56564 8.18306C8.44843 8.06585 8.28946 8 8.1237 8C7.95794 8 7.79897 8.06585 7.68176 8.18306C7.56455 8.30027 7.4987 8.45924 7.4987 8.625V15.7083C7.4987 15.8741 7.56455 16.0331 7.68176 16.1503C7.79897 16.2675 7.95794 16.3333 8.1237 16.3333C8.28946 16.3333 8.44843 16.2675 8.56564 16.1503C8.68285 16.0331 8.7487 15.8741 8.7487 15.7083V8.625ZM11.8737 8C11.7079 8 11.549 8.06585 11.4318 8.18306C11.3145 8.30027 11.2487 8.45924 11.2487 8.625V15.7083C11.2487 15.8741 11.3145 16.0331 11.4318 16.1503C11.549 16.2675 11.7079 16.3333 11.8737 16.3333C12.0395 16.3333 12.1984 16.2675 12.3156 16.1503C12.4329 16.0331 12.4987 15.8741 12.4987 15.7083V8.625C12.4987 8.45924 12.4329 8.30027 12.3156 8.18306C12.1984 8.06585 12.0395 8 11.8737 8Z" fill="#8A8A8E"/>
</svg>
