<svg width="16" height="16" viewBox="0 0 16 16" fill="none" xmlns="http://www.w3.org/2000/svg">
<path fill-rule="evenodd" clip-rule="evenodd" d="M1.14517 0.376367C1.37576 0.145848 1.68847 0.0163491 2.01452 0.0163491C2.34057 0.0163491 2.65328 0.145848 2.88387 0.376367L8.16266 5.65516L13.4414 0.376367C13.5549 0.258926 13.6906 0.16525 13.8406 0.100806C13.9906 0.0363626 14.1519 0.00244175 14.3152 0.00102299C14.4785 -0.000395774 14.6404 0.0307156 14.7915 0.0925424C14.9426 0.154369 15.0799 0.245673 15.1954 0.361126C15.3108 0.476579 15.4021 0.613869 15.464 0.764986C15.5258 0.916103 15.5569 1.07802 15.5555 1.24129C15.5541 1.40456 15.5201 1.56591 15.4557 1.71593C15.3913 1.86595 15.2976 2.00163 15.1801 2.11506L9.032 8.2632C8.80141 8.49371 8.48871 8.62321 8.16266 8.62321C7.8366 8.62321 7.5239 8.49371 7.29331 8.2632L1.14517 2.11506C0.914655 1.88447 0.785156 1.57177 0.785156 1.24571C0.785156 0.919661 0.914655 0.606957 1.14517 0.376367ZM1.14517 7.75413C1.37576 7.52361 1.68847 7.39411 2.01452 7.39411C2.34057 7.39411 2.65328 7.52361 2.88387 7.75413L8.16266 13.0329L13.4414 7.75413C13.6734 7.53014 13.984 7.4062 14.3064 7.40901C14.6288 7.41181 14.9372 7.54113 15.1652 7.76911C15.3931 7.99709 15.5225 8.3055 15.5253 8.6279C15.5281 8.95031 15.4041 9.26091 15.1801 9.49282L9.032 15.641C8.80141 15.8715 8.48871 16.001 8.16266 16.001C7.8366 16.001 7.5239 15.8715 7.29331 15.641L1.14517 9.49282C0.914655 9.26223 0.785156 8.94953 0.785156 8.62348C0.785156 8.29742 0.914655 7.98472 1.14517 7.75413Z" fill="white"/>
</svg>
