<svg width="13" height="14" viewBox="0 0 13 14" fill="none" xmlns="http://www.w3.org/2000/svg">
<path d="M11.3026 5.25556C10.8751 4.67104 10.3835 4.13623 9.83703 3.6611L9.82537 3.65118C9.79121 3.61288 9.74491 3.58751 9.69425 3.57933C9.64359 3.57115 9.59165 3.58067 9.54718 3.60628L9.54835 3.60569C9.50932 3.62528 9.47805 3.65748 9.45963 3.69708C9.44121 3.73668 9.43671 3.78134 9.44687 3.82381V3.82264L9.43871 3.81739C9.72972 4.35335 9.90293 4.99079 9.9076 5.66788V5.66904C9.91226 6.08311 9.88602 6.37296 9.88544 6.37821C9.87608 6.43476 9.8648 6.49097 9.85161 6.54675C9.8172 6.7153 9.58742 7.21218 9.262 7.07571C8.93658 6.93924 8.91675 6.41728 8.91675 6.41728H8.91208C8.80257 4.30857 7.86634 2.32799 6.30636 0.904913L6.29995 0.899081L6.29703 0.896165L6.29411 0.893249C5.99792 0.631305 5.67746 0.398142 5.33709 0.196913L5.30793 0.181167C5.27874 0.167062 5.2505 0.151088 5.22337 0.133345L5.22687 0.135094C5.18539 0.108925 5.14167 0.0864814 5.09623 0.0680268L5.08981 0.065694C5.06065 0.0505309 5.03033 0.038867 4.99884 0.0248703C4.96807 0.00985619 4.9345 0.00144258 4.90029 0.000169756C4.86608 -0.00110307 4.83198 0.00479302 4.80018 0.0174794C4.76838 0.0301658 4.73959 0.0493621 4.71565 0.0738355C4.69171 0.0983089 4.67315 0.127519 4.66116 0.159589L4.66058 0.161338C4.64364 0.392756 4.68286 0.624841 4.77489 0.837846L4.77139 0.828515C5.15571 1.79954 5.37908 2.92394 5.37908 4.10083C5.37908 4.80183 5.29976 5.48417 5.15047 6.13968L5.16213 6.07845C5.12674 6.21753 5.05833 6.34603 4.96269 6.45304C4.86705 6.56005 4.74701 6.64241 4.61276 6.69314L4.60693 6.69488C4.44287 6.71039 4.27832 6.67082 4.13925 6.58243C4.00017 6.49404 3.89448 6.36187 3.83886 6.20675L3.83711 6.2015C3.82195 6.15951 3.80328 6.12044 3.79162 6.07495V6.06678C3.51052 5.06485 3.85519 3.56429 4.09605 2.72798C4.25759 2.10921 3.49827 2.72798 3.49827 2.72798H3.49536C3.34606 2.85395 3.1851 2.99625 3.01597 3.15372V3.14789C2.80194 3.34384 2.51909 3.61561 2.22807 3.92645C2.07061 4.095 -0.0283159 6.40445 0.62603 9.55896C1.27513 12.1285 3.56651 14 6.2947 14C9.25792 14 11.7056 11.792 12.0823 8.93203L12.0853 8.90228C12.0992 8.78623 12.1121 8.67075 12.1179 8.55586C12.1208 8.51971 12.1214 8.4818 12.1232 8.44389C12.154 7.31459 11.8649 6.19958 11.2892 5.22756L11.3044 5.25556H11.3026Z" fill="white"/>
</svg>
