<svg width="16" height="16" viewBox="0 0 16 16" fill="none" xmlns="http://www.w3.org/2000/svg">
<path d="M11.384 12.8L8 10.76L4.616 12.8L5.512 8.952L2.528 6.368L6.464 6.032L8 2.4L9.536 6.024L13.472 6.36L10.488 8.944L11.384 12.8ZM8 0C3.576 0 0 3.6 0 8C0 10.1217 0.842855 12.1566 2.34315 13.6569C3.08601 14.3997 3.96793 14.989 4.93853 15.391C5.90914 15.7931 6.94943 16 8 16C10.1217 16 12.1566 15.1571 13.6569 13.6569C15.1571 12.1566 16 10.1217 16 8C16 6.94943 15.7931 5.90914 15.391 4.93853C14.989 3.96793 14.3997 3.08601 13.6569 2.34315C12.914 1.60028 12.0321 1.011 11.0615 0.608964C10.0909 0.206926 9.05058 0 8 0Z" fill="#FDDE00"/>
</svg>
