<svg width="24" height="24" viewBox="0 0 24 24" fill="none" xmlns="http://www.w3.org/2000/svg">
<path d="M8.0662 0.657941C5.64002 1.49961 3.54769 3.09711 2.09653 5.21582C0.645366 7.33452 -0.0881254 9.86274 0.00378887 12.4291C0.0957031 14.9955 1.00818 17.4648 2.60719 19.4742C4.2062 21.4837 6.40745 22.9274 8.88763 23.5934C10.8984 24.1122 13.005 24.135 15.0265 23.6598C16.8578 23.2484 18.5508 22.3686 19.9399 21.1063C21.3856 19.7525 22.435 18.0302 22.9752 16.1247C23.5624 14.0524 23.6668 11.8732 23.2806 9.75433H11.9893V14.4382H18.5285C18.3978 15.1852 18.1177 15.8982 17.7051 16.5345C17.2924 17.1708 16.7556 17.7172 16.1268 18.1412C15.3283 18.6694 14.4282 19.0248 13.4842 19.1846C12.5375 19.3606 11.5664 19.3606 10.6196 19.1846C9.66009 18.9862 8.75237 18.5902 7.95428 18.0217C6.67215 17.1141 5.70944 15.8248 5.20354 14.3376C4.68909 12.8226 4.68909 11.1802 5.20354 9.66517C5.56366 8.60323 6.15897 7.63634 6.94504 6.83666C7.84461 5.90472 8.98349 5.23857 10.2367 4.91129C11.49 4.58401 12.8092 4.60824 14.0495 4.98134C15.0185 5.27878 15.9046 5.79847 16.6371 6.49898C17.3744 5.76545 18.1105 5.03003 18.8453 4.2927C19.2247 3.89622 19.6383 3.5187 20.012 3.11273C18.8938 2.07215 17.5812 1.26245 16.1496 0.730029C13.5424 -0.216622 10.6898 -0.242062 8.0662 0.657941Z" fill="white"/>
<path d="M8.0662 0.657856C10.6896 -0.242759 13.5422 -0.217988 16.1496 0.728047C17.5815 1.26409 18.8934 2.07769 20.0101 3.12213C19.6307 3.5281 19.2304 3.90752 18.8434 4.3021C18.1073 5.0369 17.3719 5.76916 16.6371 6.4989C15.9046 5.79838 15.0185 5.27869 14.0495 4.98125C12.8096 4.60685 11.4904 4.58121 10.2369 4.90716C8.98328 5.2331 7.8437 5.89803 6.94314 6.82899C6.15707 7.62866 5.56176 8.59556 5.20164 9.6575L1.26904 6.61272C2.67668 3.82132 5.1139 1.68611 8.0662 0.657856Z" fill="#E33629"/>
<path d="M0.22583 9.62908C0.437203 8.58152 0.788125 7.56703 1.26921 6.61276L5.20181 9.66513C4.68736 11.1801 4.68736 12.8226 5.20181 14.3376C3.89158 15.3493 2.58071 16.3662 1.26921 17.3881C0.0648662 14.9908 -0.302438 12.2594 0.22583 9.62908Z" fill="#F8BD00"/>
<path d="M11.9892 9.75247H23.2805C23.6668 11.8714 23.5623 14.0506 22.9751 16.1228C22.4349 18.0283 21.3855 19.7506 19.9398 21.1045C18.6707 20.1142 17.3959 19.1315 16.1267 18.1413C16.7559 17.7169 17.293 17.1698 17.7057 16.5328C18.1184 15.8958 18.3982 15.1821 18.5284 14.4344H11.9892C11.9873 12.875 11.9892 11.3138 11.9892 9.75247Z" fill="#587DBD"/>
<path d="M1.26721 17.3881C2.57871 16.3763 3.88958 15.3595 5.19981 14.3376C5.70672 15.8253 6.6708 17.1147 7.95434 18.0217C8.75491 18.5875 9.6646 18.9803 10.6254 19.1751C11.5721 19.3512 12.5432 19.3512 13.49 19.1751C14.4339 19.0153 15.3341 18.6599 16.1326 18.1317C17.4017 19.122 18.6765 20.1047 19.9456 21.0949C18.5568 22.3579 16.8637 23.2384 15.0323 23.6503C13.0108 24.1255 10.9041 24.1027 8.89338 23.5839C7.30308 23.1593 5.81764 22.4107 4.53015 21.3852C3.16742 20.3033 2.05441 18.9398 1.26721 17.3881Z" fill="#319F43"/>
</svg>
