<svg width="17" height="16" viewBox="0 0 17 16" fill="none" xmlns="http://www.w3.org/2000/svg">
<path d="M0.538121 6.07665L3.27557 0.930706C3.35852 0.772148 3.46221 0.656832 3.58664 0.58476C3.71107 0.512688 3.84932 0.476652 4.0014 0.476652C4.15348 0.476652 4.29174 0.512688 4.41617 0.58476C4.5406 0.656832 4.64429 0.772148 4.72724 0.930706L7.46469 6.07665C7.53381 6.2208 7.56506 6.36494 7.55842 6.50908C7.55179 6.65323 7.51363 6.79016 7.44395 6.91989C7.37427 7.04962 7.27749 7.15427 7.15361 7.23384C7.02974 7.31341 6.89148 7.3529 6.73885 7.35233H1.26396C1.11188 7.35233 0.973624 7.31283 0.849195 7.23384C0.724765 7.15485 0.627987 7.0502 0.55886 6.91989C0.489732 6.78959 0.45185 6.65265 0.445214 6.50908C0.438578 6.36552 0.469547 6.22137 0.538121 6.07665ZM4.0014 16.001C3.08892 16.001 2.30778 15.6622 1.65799 14.9848C1.00819 14.3073 0.683289 13.4929 0.683289 12.5415C0.683289 11.5902 1.00819 10.7757 1.65799 10.0983C2.30778 9.42079 3.08892 9.08206 4.0014 9.08206C4.91389 9.08206 5.69502 9.42079 6.34482 10.0983C6.99462 10.7757 7.31952 11.5902 7.31952 12.5415C7.31952 13.4929 6.99462 14.3073 6.34482 14.9848C5.69502 15.6622 4.91389 16.001 4.0014 16.001ZM8.97858 15.1361V9.94692C8.97858 9.70188 9.05821 9.49661 9.21748 9.33114C9.37675 9.16566 9.57363 9.08263 9.80811 9.08206H14.7853C15.0203 9.08206 15.2175 9.16508 15.3767 9.33114C15.536 9.49719 15.6154 9.70245 15.6148 9.94692V15.1361C15.6148 15.3812 15.5352 15.5867 15.3759 15.7528C15.2166 15.9188 15.0198 16.0016 14.7853 16.001H9.80811C9.57307 16.001 9.3762 15.9179 9.21748 15.7519C9.05876 15.5858 8.97913 15.3806 8.97858 15.1361ZM11.7575 6.87665L10.6584 5.90368C9.70441 5.06764 9.0477 4.40833 8.68824 3.92573C8.32878 3.44314 8.14905 2.90606 8.14905 2.31449C8.14905 1.66584 8.36694 1.11809 8.80272 0.671247C9.2385 0.2244 9.78101 0.000976562 10.4303 0.000976562C10.8035 0.000976562 11.1528 0.0912107 11.4779 0.271679C11.8031 0.452148 12.076 0.700652 12.2967 1.01719C12.5179 0.700076 12.7911 0.451571 13.1163 0.271679C13.4414 0.0917873 13.7904 0.00155314 14.1631 0.000976562C14.8129 0.000976562 15.3557 0.2244 15.7915 0.671247C16.2273 1.11809 16.4449 1.66584 16.4443 2.31449C16.4443 2.90548 16.2646 3.44256 15.9051 3.92573C15.5457 4.4089 14.889 5.06822 13.935 5.90368L12.8359 6.87665C12.6838 7.02079 12.5041 7.09287 12.2967 7.09287C12.0893 7.09287 11.9096 7.02079 11.7575 6.87665Z" fill="white"/>
</svg>
