<svg width="20" height="18" viewBox="0 0 20 18" fill="none" xmlns="http://www.w3.org/2000/svg">
<path d="M0.113045 6.83513L3.41264 1.04595C3.51263 0.867567 3.63762 0.737838 3.7876 0.656757C3.93758 0.575675 4.10423 0.535135 4.28754 0.535135C4.47085 0.535135 4.6375 0.575675 4.78748 0.656757C4.93746 0.737838 5.06244 0.867567 5.16243 1.04595L8.46203 6.83513C8.54535 6.9973 8.58302 7.15946 8.57502 7.32162C8.56702 7.48378 8.52102 7.63784 8.43703 7.78378C8.35304 7.92973 8.23639 8.04746 8.08708 8.13697C7.93776 8.22648 7.77111 8.27092 7.58714 8.27027H0.987939C0.804628 8.27027 0.637981 8.22584 0.487999 8.13697C0.338018 8.04811 0.221365 7.93038 0.138042 7.78378C0.0547187 7.63719 0.00905772 7.48313 0.0010587 7.32162C-0.00694033 7.16011 0.0303885 6.99794 0.113045 6.83513ZM4.28754 18C3.18767 18 2.24612 17.6189 1.46288 16.8568C0.679643 16.0946 0.288024 15.1784 0.288024 14.1081C0.288024 13.0378 0.679643 12.1216 1.46288 11.3595C2.24612 10.5973 3.18767 10.2162 4.28754 10.2162C5.3874 10.2162 6.32896 10.5973 7.11219 11.3595C7.89543 12.1216 8.28705 13.0378 8.28705 14.1081C8.28705 15.1784 7.89543 16.0946 7.11219 16.8568C6.32896 17.6189 5.3874 18 4.28754 18ZM10.2868 17.027V11.1892C10.2868 10.9135 10.3828 10.6826 10.5748 10.4964C10.7668 10.3103 11.0041 10.2169 11.2867 10.2162H17.286C17.5693 10.2162 17.8069 10.3096 17.9989 10.4964C18.1908 10.6832 18.2865 10.9142 18.2858 11.1892V17.027C18.2858 17.3027 18.1898 17.5339 17.9979 17.7208C17.8059 17.9076 17.5686 18.0006 17.286 18H11.2867C11.0034 18 10.7661 17.9066 10.5748 17.7198C10.3835 17.533 10.2875 17.302 10.2868 17.027ZM13.6364 7.73513L12.3116 6.64054C11.1617 5.7 10.3701 4.95827 9.93685 4.41535C9.50357 3.87243 9.28693 3.26822 9.28693 2.6027C9.28693 1.87297 9.54957 1.25676 10.0748 0.754054C10.6001 0.251351 11.254 0 12.0366 0C12.4865 0 12.9075 0.101513 13.2994 0.30454C13.6914 0.507567 14.0204 0.787135 14.2863 1.14324C14.553 0.786486 14.8823 0.506919 15.2742 0.30454C15.6662 0.102162 16.0868 0.000648648 16.536 0C17.3193 0 17.9735 0.251351 18.4988 0.754054C19.0241 1.25676 19.2864 1.87297 19.2857 2.6027C19.2857 3.26757 19.0691 3.87178 18.6358 4.41535C18.2025 4.95892 17.4109 5.70065 16.2611 6.64054L14.9362 7.73513C14.7529 7.8973 14.5363 7.97838 14.2863 7.97838C14.0364 7.97838 13.8197 7.8973 13.6364 7.73513Z" fill="#121212"/>
</svg>
