<svg width="48" height="16" viewBox="0 0 48 16" fill="none" xmlns="http://www.w3.org/2000/svg">
<path d="M1.92252 3.39681C2.16974 1.77613 2.29335 0.965798 2.8555 0.482899C3.41765 0 4.23736 0 5.87678 0H43.1045C45.3687 0 46.5008 0 47.101 0.734543C47.7012 1.46909 47.4756 2.57847 47.0243 4.79724L45.3972 12.7972C45.0853 14.3307 44.9293 15.0975 44.377 15.5487C43.8248 16 43.0423 16 41.4774 16H4.65644C2.49192 16 1.40966 16 0.811119 15.3032C0.212574 14.6065 0.375777 13.5366 0.702182 11.3968L1.92252 3.39681Z" fill="url(#paint0_linear_3849_11659)"/>
<path d="M11.0802 4.42H12.5082V11.788H16.7922V13H11.0802V4.42ZM18.3708 5.836C18.0228 5.836 17.6628 5.596 17.6628 5.164C17.6628 4.732 18.0228 4.504 18.3708 4.504C18.7428 4.504 19.0908 4.732 19.0908 5.164C19.0908 5.596 18.7428 5.836 18.3708 5.836ZM17.7468 6.868H19.0068V13H17.7468V6.868ZM20.182 4.42H21.442V9.328L23.938 6.868H25.486L23.158 9.148L25.738 13H24.226L22.294 9.976L21.442 10.78V13H20.182V4.42ZM28.6242 12.148C29.6682 12.148 30.0882 11.5 30.1962 11.128H31.4562C31.1442 12.292 30.2322 13.18 28.6602 13.18C26.7522 13.18 25.5882 11.86 25.5882 9.94C25.5882 7.948 26.7522 6.7 28.6002 6.7C30.5802 6.7 31.5522 8.08 31.5522 10.264H26.8482C26.8482 11.296 27.5082 12.148 28.6242 12.148ZM28.6002 7.696C27.5802 7.696 26.8482 8.38 26.8482 9.328H30.2922C30.2922 8.38 29.6202 7.696 28.6002 7.696ZM35.0561 9.292C36.1841 9.556 37.4081 9.808 37.4081 11.272C37.4081 12.448 36.4001 13.18 34.9121 13.18C32.9321 13.18 32.0801 12.256 32.0201 10.96H33.2441C33.3041 11.62 33.5921 12.184 34.8881 12.184C35.7641 12.184 36.1361 11.752 36.1361 11.368C36.1361 10.6 35.4041 10.54 34.5041 10.324C33.5321 10.096 32.2121 9.904 32.2121 8.512C32.2121 7.504 33.1001 6.7 34.6361 6.7C36.3041 6.7 37.0961 7.6 37.1801 8.668H35.9561C35.8721 8.188 35.6321 7.696 34.6481 7.696C33.8921 7.696 33.4841 7.984 33.4841 8.416C33.4841 9.04 34.1681 9.088 35.0561 9.292Z" fill="white"/>
<defs>
<linearGradient id="paint0_linear_3849_11659" x1="24" y1="0" x2="24" y2="16" gradientUnits="userSpaceOnUse">
<stop stop-color="#FF5C00"/>
<stop offset="1" stop-color="#F0174B"/>
</linearGradient>
</defs>
</svg>
