<svg width="16" height="14" viewBox="0 0 16 14" fill="none" xmlns="http://www.w3.org/2000/svg">
<path d="M6.3268 1.77266C7.51519 0.179205 9.30197 -0.28611 10.9456 0.16163C12.7199 0.644519 14.2798 2.16851 14.7979 4.29088C14.8246 4.39967 14.8478 4.50847 14.8673 4.61727C14.1195 4.3508 13.3061 4.33027 12.5458 4.55868C11.4687 3.76196 10.1347 3.62806 8.9488 4.06492C7.4633 4.61308 6.30337 6.00317 6.03472 7.75228C5.69159 9.99182 7.05574 12.0037 8.98478 13.7143L9.3095 13.9955C9.04755 14.0139 8.78142 13.9729 8.527 13.9185C8.39627 13.8904 8.26624 13.8592 8.13701 13.8248L7.68759 13.6993C3.69225 12.5753 1.01753 10.817 0.250093 8.18914C-0.362516 6.09188 0.226659 3.99211 1.52218 2.68655C2.72229 1.47723 4.50153 0.98681 6.3268 1.77266ZM7.68927 8.00586C8.04746 5.66925 10.7498 4.51768 12.1374 6.52288C12.1507 6.54152 12.1708 6.55416 12.1933 6.55808C12.2159 6.562 12.2391 6.55687 12.2579 6.5438C14.2472 5.13447 16.3922 7.14051 15.9293 9.45871C15.6615 10.8033 14.4146 11.9192 12.1884 12.8063L11.8244 12.9486L11.6043 13.039C11.4143 13.1134 11.2134 13.1729 11.0318 13.1411C10.8511 13.1093 10.6828 12.9837 10.5297 12.8498L10.2703 12.6155C8.33424 10.9495 7.47391 9.41296 7.68927 8.00586Z" fill="white"/>
</svg>
