<svg width="28" height="28" viewBox="0 0 28 28" fill="none" xmlns="http://www.w3.org/2000/svg">
<path d="M27.1557 15.0321C27.0169 14.7661 26.8608 14.5175 26.6816 14.2805C26.6237 14.1995 26.5544 14.1128 26.4734 14.0088L21.7094 9.24476C21.2238 8.75911 20.5474 8.53363 19.8478 8.64348C19.391 8.71286 18.9748 8.9499 18.6452 9.27945L18.148 9.77666C17.9052 10.0195 17.726 10.2912 17.6219 10.5803C17.3328 11.3666 17.5294 12.2512 18.1133 12.8409L21.4319 16.1595C22.2124 16.94 22.646 17.9865 22.646 19.0907C22.646 20.195 22.2124 21.2415 21.4319 22.022C20.8191 22.629 19.8593 22.71 19.154 22.207C18.2925 21.5884 17.2634 20.831 16.1881 19.9522C15.9799 19.7787 15.8065 19.5822 15.6273 19.4087L15.344 19.137C14.8468 18.6629 14.1645 18.449 13.465 18.5762C13.0256 18.6571 12.6266 18.8884 12.3087 19.2064L11.8057 19.7094C10.7708 20.75 8.73566 23.2187 7.63139 22.9239C7.63139 22.9239 7.62561 22.9239 7.61404 22.9239L7.5967 22.9181C7.10527 22.71 6.67743 22.4151 6.29585 22.0393C5.50956 21.253 5.08173 20.2123 5.08173 19.1023C5.08173 17.9922 5.49222 17.073 6.34211 16.119L19.2754 4.22638C20.108 3.39384 20.108 2.03518 19.2754 1.19686L18.7319 0.653392C18.5007 0.42213 18.2405 0.248684 17.9572 0.144616C17.7086 0.0521117 17.4542 0.00585938 17.1941 0.00585938C16.6217 0.00585938 16.084 0.231339 15.6793 0.630266L2.70552 12.5576L2.67083 12.5923C2.67083 12.5923 2.63036 12.6327 2.61879 12.6443C0.907458 14.5349 -0.000244141 16.7608 -0.000244141 19.0849C-0.000244141 21.5537 0.959491 23.8721 2.70552 25.6181C3.54962 26.4622 4.53248 27.1271 5.62519 27.5896C6.26116 27.8613 6.9376 27.9943 7.63139 27.9943C9.50461 27.9943 11.2391 26.9883 12.7076 25.8089C13.3956 25.2538 14.3784 25.2538 15.0607 25.8089C16.5697 27.023 18.2694 27.9943 20.1253 27.9943C20.8075 27.9943 21.4724 27.8613 22.1026 27.5954C23.1201 27.1618 24.0741 26.52 25.0165 25.6354C26.8955 23.8605 27.7511 21.6809 27.7511 18.5357C27.7511 16.2462 27.41 15.6218 27.1557 15.0379V15.0321Z" fill="white"/>
</svg>
