<svg width="48" height="49" viewBox="0 0 48 49" fill="none" xmlns="http://www.w3.org/2000/svg">
<g clip-path="url(#clip0_6119_4407)">
<path d="M46.97 26.29C46.73 25.83 46.46 25.4 46.15 24.99C46.05 24.85 45.93 24.7 45.79 24.52L37.55 16.28C36.71 15.44 35.54 15.05 34.33 15.24C33.54 15.36 32.82 15.77 32.25 16.34L31.39 17.2C30.97 17.62 30.66 18.09 30.48 18.59C29.98 19.95 30.32 21.48 31.33 22.5L37.07 28.24C38.42 29.59 39.17 31.4 39.17 33.31C39.17 35.22 38.42 37.03 37.07 38.38C36.01 39.43 34.35 39.57 33.13 38.7C31.64 37.63 29.86 36.32 28 34.8C27.64 34.5 27.34 34.16 27.03 33.86L26.54 33.39C25.68 32.57 24.5 32.2 23.29 32.42C22.53 32.56 21.84 32.96 21.29 33.51L20.42 34.38C18.63 36.18 15.11 40.45 13.2 39.94C13.2 39.94 13.19 39.94 13.17 39.94L13.14 39.93C12.29 39.57 11.55 39.06 10.89 38.41C9.53 37.05 8.79 35.25 8.79 33.33C8.79 31.41 9.5 29.82 10.97 28.17L33.34 7.60002C34.78 6.16002 34.78 3.81002 33.34 2.36002L32.4 1.42002C32 1.02002 31.55 0.720018 31.06 0.540018C30.63 0.380018 30.19 0.300018 29.74 0.300018C28.75 0.300018 27.82 0.690018 27.12 1.38002L4.68 22.01L4.62 22.07C4.62 22.07 4.55 22.14 4.53 22.16C1.57 25.43 0 29.28 0 33.3C0 37.57 1.66 41.58 4.68 44.6C6.14 46.06 7.84 47.21 9.73 48.01C10.83 48.48 12 48.71 13.2 48.71C16.44 48.71 19.44 46.97 21.98 44.93C23.17 43.97 24.87 43.97 26.05 44.93C28.66 47.03 31.6 48.71 34.81 48.71C35.99 48.71 37.14 48.48 38.23 48.02C39.99 47.27 41.64 46.16 43.27 44.63C46.52 41.56 48 37.79 48 32.35C48 28.39 47.41 27.31 46.97 26.3V26.29Z" fill="url(#paint0_linear_6119_4407)"/>
</g>
<defs>
<linearGradient id="paint0_linear_6119_4407" x1="0" y1="24.5" x2="48" y2="24.5" gradientUnits="userSpaceOnUse">
<stop stop-color="#FF5C00"/>
<stop offset="1" stop-color="#F2243E"/>
</linearGradient>
<clipPath id="clip0_6119_4407">
<rect width="48" height="48.43" fill="white" transform="translate(0 0.290009)"/>
</clipPath>
</defs>
</svg>
