<svg width="40" height="40" viewBox="0 0 40 40" fill="none" xmlns="http://www.w3.org/2000/svg">
<path fill-rule="evenodd" clip-rule="evenodd" d="M-2.28882e-05 20C-2.28882e-05 31.046 8.95398 40 20 40C23.2 40 26.224 39.248 28.904 37.912C29.6119 37.5461 30.4292 37.4515 31.202 37.646L35.654 38.838C36.0946 38.9556 36.5585 38.9552 36.9989 38.8368C37.4394 38.7185 37.841 38.4864 38.1633 38.1638C38.4857 37.8412 38.7176 37.4395 38.8357 36.9989C38.9537 36.5584 38.9538 36.0946 38.836 35.654L37.646 31.202C37.4524 30.4296 37.5477 29.6131 37.914 28.906C39.2907 26.1393 40.0049 23.0903 40 20C40 8.954 31.046 0 20 0C8.95398 0 -2.28882e-05 8.954 -2.28882e-05 20ZM29 18.216C29 20.954 26.362 23.826 23.942 25.884C22.296 27.284 21.472 27.986 20 27.986C18.528 27.986 17.704 27.286 16.058 25.884C13.638 23.824 11 20.954 11 18.216C11 12.862 15.95 10.864 20 15C24.05 10.864 29 12.862 29 18.216Z" fill="#485FE6"/>
</svg>
