<svg width="16" height="25" viewBox="0 0 16 25" fill="none" xmlns="http://www.w3.org/2000/svg">
<path d="M14.2857 10.7861V13.3576C14.2857 14.9489 13.6535 16.475 12.5283 17.6003C11.4031 18.7255 9.87694 19.3576 8.28563 19.3576C6.69432 19.3576 5.16819 18.7255 4.04296 17.6003C2.91773 16.475 2.28559 14.9489 2.28559 13.3576V10.7861H0.571289V13.3576C0.572189 15.2545 1.27197 17.0846 2.53692 18.4982C3.80187 19.9118 5.54331 20.8097 7.42848 21.0205V22.7862H3.99989V24.5005H12.5714V22.7862H9.14278V21.0205C11.028 20.8097 12.7694 19.9118 14.0343 18.4982C15.2993 17.0846 15.9991 15.2545 16 13.3576V10.7861H14.2857Z" fill="#121212"/>
<path d="M8.28575 17.643C9.4224 17.643 10.5125 17.1915 11.3162 16.3877C12.12 15.584 12.5715 14.4939 12.5715 13.3572V4.78575C12.5715 3.6491 12.12 2.559 11.3162 1.75527C10.5125 0.951533 9.4224 0.5 8.28575 0.5C7.1491 0.5 6.059 0.951533 5.25527 1.75527C4.45153 2.559 4 3.6491 4 4.78575V13.3572C4 14.4939 4.45153 15.584 5.25527 16.3877C6.059 17.1915 7.1491 17.643 8.28575 17.643Z" fill="#121212"/>
</svg>
