<svg width="17" height="18" viewBox="0 0 17 18" fill="none" xmlns="http://www.w3.org/2000/svg">
<path d="M12.1605 0.025845C12.2864 0.0676268 12.3905 0.157682 12.4499 0.276202C12.5093 0.394723 12.5193 0.532004 12.4775 0.65785L11.9775 2.15786C11.9356 2.28384 11.8454 2.38802 11.7267 2.44746C11.608 2.50691 11.4705 2.51677 11.3445 2.47487C11.2185 2.43296 11.1144 2.34273 11.0549 2.22402C10.9955 2.10531 10.9856 1.96784 11.0275 1.84186L11.5275 0.341848C11.5483 0.279514 11.5812 0.221888 11.6242 0.172265C11.6673 0.122641 11.7197 0.0819936 11.7785 0.0526455C11.8373 0.0232975 11.9013 0.00582472 11.9669 0.00122608C12.0324 -0.00337256 12.0982 0.00499318 12.1605 0.025845ZM15.8576 1.85386C15.904 1.80737 15.9408 1.7522 15.9659 1.69148C15.991 1.63077 16.0039 1.5657 16.0038 1.5C16.0038 1.43431 15.9908 1.36926 15.9656 1.30858C15.9404 1.2479 15.9035 1.19278 15.8571 1.14635C15.8106 1.09993 15.7554 1.06312 15.6947 1.03802C15.634 1.01292 15.5689 1.00003 15.5032 1.00008C15.4375 1.00012 15.3725 1.01311 15.3118 1.03829C15.2511 1.06348 15.196 1.10037 15.1495 1.14685L13.1495 3.14687C13.0585 3.24117 13.0081 3.36748 13.0092 3.49858C13.0103 3.62967 13.0629 3.75508 13.1556 3.84779C13.2483 3.94049 13.3737 3.99308 13.5048 3.99422C13.6359 3.99536 13.7622 3.94496 13.8565 3.85388L15.8576 1.85386ZM5.60947 2.14586C5.74897 1.85209 5.958 1.59677 6.21845 1.40202C6.4789 1.20727 6.78292 1.07898 7.10415 1.02824C7.42537 0.977514 7.75413 1.00588 8.06192 1.11089C8.36971 1.2159 8.64725 1.39437 8.87049 1.63086L15.4576 8.61092C15.6774 8.84381 15.838 9.12607 15.9261 9.43398C16.0141 9.74189 16.0269 10.0664 15.9634 10.3803C15.8999 10.6942 15.7619 10.9882 15.5612 11.2377C15.3604 11.4872 15.1026 11.6848 14.8095 11.8139L10.8725 13.55C11.0185 14.0705 11.042 14.6177 10.9413 15.1488C10.8406 15.6799 10.6184 16.1805 10.292 16.6114C9.96565 17.0424 9.54401 17.392 9.06008 17.6328C8.57615 17.8737 8.04305 17.9994 7.50248 18C6.90673 18.0001 6.32081 17.8482 5.80019 17.5586C5.27958 17.269 4.8415 16.8512 4.52746 16.345L3.32745 16.874C3.05168 16.9954 2.74573 17.031 2.44946 16.976C2.15319 16.9211 1.88033 16.7782 1.66643 16.566L0.444422 15.356C0.223458 15.1371 0.0759874 14.855 0.0224191 14.5486C-0.0311492 14.2423 0.0118338 13.9268 0.14542 13.646L5.60947 2.14586ZM5.45547 15.935C5.78736 16.4088 6.27331 16.7528 6.83047 16.9085C7.38763 17.0641 7.98152 17.0217 8.51092 16.7885C9.04032 16.5553 9.47247 16.1457 9.7337 15.6296C9.99493 15.1134 10.0691 14.5227 9.9435 13.958L5.45547 15.935ZM15.0025 4.99989C14.8699 4.99989 14.7428 5.05257 14.649 5.14634C14.5552 5.2401 14.5025 5.36728 14.5025 5.49989C14.5025 5.6325 14.5552 5.75968 14.649 5.85345C14.7428 5.94722 14.8699 5.9999 15.0025 5.9999H16.5026C16.6352 5.9999 16.7623 5.94722 16.8561 5.85345C16.9499 5.75968 17.0026 5.6325 17.0026 5.49989C17.0026 5.36728 16.9499 5.2401 16.8561 5.14634C16.7623 5.05257 16.6352 4.99989 16.5026 4.99989H15.0025Z" fill="#121212"/>
</svg>
