<svg width="26" height="25" viewBox="0 0 26 25" fill="none" xmlns="http://www.w3.org/2000/svg">
<path d="M19.1151 13.8034V11.5297C19.1159 9.99305 18.5984 8.50099 17.6463 7.29485C16.6941 6.0887 15.3629 5.23898 13.868 4.8831C13.8793 4.83898 13.8881 4.79428 13.8945 4.7492V1.76314C13.8945 1.42813 13.7615 1.10685 13.5246 0.869965C13.2877 0.633081 12.9664 0.5 12.6314 0.5C12.2964 0.5 11.9751 0.633081 11.7382 0.869965C11.5013 1.10685 11.3683 1.42813 11.3683 1.76314V4.7492C11.3747 4.79428 11.3835 4.83898 11.3948 4.8831C9.89987 5.23898 8.5687 6.0887 7.61653 7.29485C6.66436 8.50099 6.14686 9.99305 6.1477 11.5297V13.8034C6.1477 16.8172 3.78942 17.5701 3.78942 19.077C3.78942 19.826 3.78942 20.5839 4.46899 20.5839H20.7938C21.4734 20.5839 21.4734 19.826 21.4734 19.077C21.4734 17.5701 19.1151 16.8172 19.1151 13.8034ZM5.05256 5.42625C4.71758 5.42617 4.39635 5.29305 4.15952 5.05615L2.89638 3.79301C2.66629 3.55477 2.53897 3.2357 2.54185 2.90451C2.54473 2.57332 2.67757 2.25651 2.91177 2.02231C3.14596 1.78812 3.46277 1.65527 3.79397 1.6524C4.12516 1.64952 4.44423 1.77683 4.68246 2.00693L5.9456 3.27007C6.1222 3.44672 6.24246 3.67176 6.29117 3.91675C6.33989 4.16174 6.31488 4.41568 6.21929 4.64645C6.12371 4.87723 5.96185 5.07448 5.75418 5.21328C5.54651 5.35208 5.30235 5.42619 5.05256 5.42625ZM2.52628 10.4788H1.26314C0.928134 10.4788 0.60685 10.3457 0.369965 10.1088C0.13308 9.87196 0 9.55067 0 9.21567C0 8.88066 0.13308 8.55938 0.369965 8.32249C0.60685 8.08561 0.928134 7.95253 1.26314 7.95253H2.52628C2.86129 7.95253 3.18257 8.08561 3.41945 8.32249C3.65634 8.55938 3.78942 8.88066 3.78942 9.21567C3.78942 9.55067 3.65634 9.87196 3.41945 10.1088C3.18257 10.3457 2.86129 10.4788 2.52628 10.4788ZM20.2102 5.42625C19.9605 5.42619 19.7163 5.35208 19.5086 5.21328C19.3009 5.07448 19.1391 4.87723 19.0435 4.64645C18.9479 4.41568 18.9229 4.16174 18.9716 3.91675C19.0203 3.67176 19.1406 3.44672 19.3172 3.27007L20.5803 2.00693C20.6969 1.88628 20.8362 1.79005 20.9903 1.72385C21.1445 1.65765 21.3102 1.62281 21.4779 1.62135C21.6456 1.61989 21.812 1.65185 21.9672 1.71537C22.1224 1.77888 22.2635 1.87267 22.3821 1.99127C22.5007 2.10987 22.5945 2.2509 22.658 2.40614C22.7215 2.56137 22.7535 2.7277 22.752 2.89542C22.7505 3.06314 22.7157 3.22889 22.6495 3.383C22.5833 3.5371 22.4871 3.67649 22.3664 3.79301L21.1033 5.05615C20.8665 5.29305 20.5452 5.42617 20.2102 5.42625ZM23.9997 10.4788H22.7365C22.4015 10.4788 22.0802 10.3457 21.8433 10.1088C21.6065 9.87196 21.4734 9.55067 21.4734 9.21567C21.4734 8.88066 21.6065 8.55938 21.8433 8.32249C22.0802 8.08561 22.4015 7.95253 22.7365 7.95253H23.9997C24.3347 7.95253 24.656 8.08561 24.8928 8.32249C25.1297 8.55938 25.2628 8.88066 25.2628 9.21567C25.2628 9.55067 25.1297 9.87196 24.8928 10.1088C24.656 10.3457 24.3347 10.4788 23.9997 10.4788ZM8.6184 21.8471C8.95349 22.634 9.51257 23.3051 10.2261 23.7768C10.9396 24.2485 11.7761 24.5 12.6314 24.5C13.4867 24.5 14.3232 24.2485 15.0367 23.7768C15.7502 23.3051 16.3093 22.634 16.6444 21.8471H8.6184Z" fill="#121212"/>
</svg>
