<svg width="17" height="22" viewBox="0 0 17 22" fill="none" xmlns="http://www.w3.org/2000/svg">
<path fill-rule="evenodd" clip-rule="evenodd" d="M9.71459 1.11392C9.71459 0.818493 9.59994 0.535162 9.39586 0.326261C9.19178 0.117359 8.915 0 8.62639 0C8.33778 0 8.06099 0.117359 7.85691 0.326261C7.65284 0.535162 7.53819 0.818493 7.53819 1.11392V1.94937H6.93206C5.76554 1.94929 4.64284 2.40429 3.79252 3.22173C2.94219 4.03918 2.42817 5.15762 2.35509 6.34937L2.1146 10.286C2.02289 11.7869 1.53056 13.2333 0.691231 14.4676C0.517808 14.7228 0.411843 15.0196 0.383643 15.3291C0.355442 15.6386 0.405966 15.9503 0.530299 16.2338C0.654633 16.5174 0.848545 16.7633 1.09318 16.9474C1.33781 17.1316 1.62483 17.2478 1.92634 17.2848L5.63384 17.7392V18.9367C5.63384 19.7491 5.94912 20.5283 6.51033 21.1028C7.07155 21.6773 7.83271 22 8.62639 22C9.42006 22 10.1812 21.6773 10.7424 21.1028C11.3037 20.5283 11.6189 19.7491 11.6189 18.9367V17.7392L15.3264 17.2836C15.6278 17.2466 15.9146 17.1303 16.1591 16.9462C16.4036 16.7622 16.5974 16.5165 16.7217 16.2331C16.846 15.9496 16.8966 15.6381 16.8685 15.3288C16.8404 15.0194 16.7347 14.7228 16.5615 14.4676C15.7222 13.2334 15.2298 11.7869 15.1382 10.286L14.8977 6.35048C14.8249 5.15854 14.311 4.03982 13.4606 3.22214C12.6103 2.40446 11.4874 1.94931 10.3207 1.94937H9.71459V1.11392ZM7.26614 18.9367C7.26614 19.306 7.40945 19.6602 7.66454 19.9213C7.91964 20.1824 8.26563 20.3291 8.62639 20.3291C8.98715 20.3291 9.33313 20.1824 9.58823 19.9213C9.84332 19.6602 9.98664 19.306 9.98664 18.9367V18.1013H7.26614V18.9367Z" fill="#121212"/>
</svg>
