<svg width="21" height="18" viewBox="0 0 21 18" fill="none" xmlns="http://www.w3.org/2000/svg">
<path d="M8.12551 2.27913C9.65344 0.230406 11.9507 -0.367855 14.064 0.20781C16.3451 0.828668 18.3508 2.78808 19.0169 5.51684C19.0513 5.65672 19.0811 5.79661 19.1062 5.93649C18.1447 5.59388 17.0989 5.56749 16.1213 5.86117C14.7365 4.8368 13.0214 4.66464 11.4966 5.22632C9.58673 5.93111 8.09538 7.71836 7.74998 9.96722C7.30882 12.8466 9.06271 15.4334 11.5429 17.6327L11.9604 17.9943C11.6236 18.0179 11.2814 17.9652 10.9543 17.8953C10.7863 17.8591 10.6191 17.8189 10.4529 17.7747L9.8751 17.6133C4.73823 16.1683 1.2993 13.9076 0.312602 10.5289C-0.475038 7.83242 0.282473 5.13271 1.94814 3.45413C3.49113 1.8993 5.77873 1.26876 8.12551 2.27913ZM9.87725 10.2933C10.3378 7.28903 13.8122 5.80844 15.5962 8.38656C15.6133 8.41052 15.6392 8.42678 15.6682 8.43182C15.6972 8.43685 15.727 8.43026 15.7512 8.41346C18.3089 6.60146 21.0667 9.18066 20.4716 12.1612C20.1273 13.89 18.5241 15.3247 15.6619 16.4652L15.1938 16.6482L14.9108 16.7644C14.6666 16.8601 14.4083 16.9365 14.1748 16.8957C13.9424 16.8548 13.7261 16.6934 13.5292 16.5212L13.1957 16.2199C10.7065 14.0779 9.60036 12.1024 9.87725 10.2933Z" fill="#121212"/>
</svg>
