<svg width="24" height="24" viewBox="0 0 24 24" fill="none" xmlns="http://www.w3.org/2000/svg">
<path d="M20.8454 16.7044C19.3956 15.4643 17.9242 14.7132 16.4921 15.9513L15.637 16.6997C15.0114 17.2429 13.8481 19.7811 9.35057 14.6073C4.85397 9.44011 7.52983 8.63557 8.15641 8.09702L9.01621 7.34775C10.4408 6.10675 9.90317 4.54451 8.87572 2.93637L8.25569 1.96231C7.22356 0.357917 6.09964 -0.695756 4.67133 0.543363L3.89958 1.21771C3.26831 1.67758 1.50376 3.17239 1.07573 6.01216C0.560605 9.4195 2.1856 13.3214 5.90858 17.6026C9.62687 21.8856 13.2674 24.037 16.716 23.9995C19.582 23.9686 21.3128 22.4307 21.8542 21.8716L22.6287 21.1963C24.0533 19.9581 23.1682 18.6974 21.7174 17.4546L20.8454 16.7044Z" fill="white"/>
</svg>
