<svg width="16" height="24" viewBox="0 0 16 24" fill="none" xmlns="http://www.w3.org/2000/svg">
<path d="M3.51655 0C2.84025 0 2.19165 0.26866 1.71343 0.746878C1.23521 1.2251 0.966553 1.8737 0.966553 2.55V21.45C0.966553 22.1263 1.23521 22.7749 1.71343 23.2531C2.19165 23.7313 2.84025 24 3.51655 24H12.8166C13.4929 24 14.1415 23.7313 14.6197 23.2531C15.0979 22.7749 15.3666 22.1263 15.3666 21.45V2.55C15.3666 1.8737 15.0979 1.2251 14.6197 0.746878C14.1415 0.26866 13.4929 0 12.8166 0H3.51655ZM6.51655 18.9H9.81655C10.0155 18.9 10.2062 18.979 10.3469 19.1197C10.4875 19.2603 10.5666 19.4511 10.5666 19.65C10.5666 19.8489 10.4875 20.0397 10.3469 20.1803C10.2062 20.321 10.0155 20.4 9.81655 20.4H6.51655C6.31764 20.4 6.12687 20.321 5.98622 20.1803C5.84557 20.0397 5.76655 19.8489 5.76655 19.65C5.76655 19.4511 5.84557 19.2603 5.98622 19.1197C6.12687 18.979 6.31764 18.9 6.51655 18.9Z" fill="white"/>
</svg>