<svg width="16" height="16" viewBox="0 0 16 16" fill="none" xmlns="http://www.w3.org/2000/svg">
<path d="M7.20317 0C6.14184 0 5.12398 0.421613 4.3735 1.17209C3.62302 1.92257 3.20141 2.94043 3.20141 4.00176C3.20141 5.0631 3.62302 6.08096 4.3735 6.83144C5.12398 7.58191 6.14184 8.00352 7.20317 8.00352C8.26451 8.00352 9.28237 7.58191 10.0328 6.83144C10.7833 6.08096 11.2049 5.0631 11.2049 4.00176C11.2049 2.94043 10.7833 1.92257 10.0328 1.17209C9.28237 0.421613 8.26451 0 7.20317 0ZM7.20317 8.80388C7.67645 8.80494 8.13638 8.83696 8.58298 8.89992C8.73317 8.92091 8.8743 8.98413 8.98994 9.08222C9.10559 9.18032 9.19098 9.30925 9.23619 9.454C9.28139 9.59875 9.28454 9.75336 9.24527 9.89983C9.206 10.0463 9.12592 10.1786 9.01437 10.2813C8.35567 10.8848 7.85128 11.6373 7.54352 12.476C7.23575 13.3146 7.13359 14.2148 7.24559 15.1011C7.25973 15.2149 7.24921 15.3305 7.21476 15.44C7.1803 15.5494 7.12271 15.6502 7.04589 15.7354C6.96907 15.8207 6.87482 15.8884 6.76953 15.934C6.66424 15.9797 6.55036 16.0021 6.43564 15.9998C4.82693 15.9678 3.32226 15.827 2.19857 15.4828C1.63672 15.3107 1.10689 15.069 0.705111 14.7129C0.280123 14.3367 0 13.8301 0 13.2058C0 12.5759 0.286526 11.9869 0.675498 11.4939C1.07087 10.9936 1.61751 10.5334 2.25859 10.1413C3.54156 9.36012 5.28633 8.80388 7.20317 8.80388ZM15.3764 9.63144C15.7515 10.0067 15.9622 10.5155 15.9622 11.0461C15.9622 11.5766 15.7515 12.0855 15.3764 12.4607L12.6408 15.1963C12.4572 15.3798 12.219 15.4989 11.9621 15.5356L10.1141 15.7998C9.99089 15.8175 9.86529 15.8062 9.74724 15.7669C9.62918 15.7276 9.52192 15.6613 9.43398 15.5732C9.34603 15.4852 9.27982 15.3779 9.2406 15.2598C9.20138 15.1417 9.19024 15.0161 9.20806 14.893L9.47217 13.0457C9.50877 12.7885 9.62785 12.5501 9.81152 12.3662L12.5471 9.63064C12.9223 9.25553 13.4312 9.04481 13.9617 9.04481C14.4923 9.04481 15.0012 9.25553 15.3764 9.63064V9.63144Z" fill="#121212"/>
</svg>
