<svg width="20" height="21" viewBox="0 0 20 21" fill="none" xmlns="http://www.w3.org/2000/svg">
<path d="M19.9699 8.89303V13.763C19.9678 15.5496 19.257 17.2624 17.9933 18.5255C16.7297 19.7886 15.0166 20.4987 13.23 20.5H6.73998C4.95401 20.4971 3.24197 19.7866 1.97872 18.5241C0.71547 17.2616 0.00396588 15.55 0 13.764V7.27703C0.00211857 5.49041 0.712998 3.7776 1.97662 2.51455C3.24024 1.25149 4.95335 0.541374 6.73998 0.540051H11.602C11.7026 0.536373 11.8029 0.553011 11.8969 0.58897C11.9909 0.62493 12.0767 0.679472 12.1492 0.74934C12.2217 0.819207 12.2793 0.902965 12.3187 0.99561C12.358 1.08826 12.3783 1.18789 12.3783 1.28855C12.3783 1.38921 12.358 1.48884 12.3187 1.58149C12.2793 1.67413 12.2217 1.75789 12.1492 1.82776C12.0767 1.89763 11.9909 1.95217 11.8969 1.98813C11.8029 2.02409 11.7026 2.04072 11.602 2.03705H6.73998C5.35015 2.03731 4.01729 2.5894 3.03434 3.57197C2.05139 4.55455 1.49879 5.8872 1.498 7.27703V9.77203H3.99399C4.3536 9.77023 4.70999 9.83985 5.04249 9.97683C5.37499 10.1138 5.677 10.3154 5.93098 10.57C6.44201 11.0898 6.73194 11.7872 6.73998 12.516C6.73985 12.6799 6.77204 12.8423 6.83471 12.9938C6.89738 13.1452 6.98931 13.2829 7.10522 13.3988C7.22113 13.5147 7.35876 13.6066 7.51024 13.6693C7.66171 13.732 7.82405 13.7641 7.98798 13.764H11.982C12.1457 13.7644 12.3077 13.7318 12.4586 13.6683C12.6094 13.6047 12.7459 13.5114 12.86 13.394C13.094 13.161 13.227 12.846 13.23 12.516C13.2269 12.1546 13.2958 11.7962 13.4328 11.4617C13.5697 11.1272 13.7719 10.8233 14.0275 10.5678C14.2831 10.3123 14.587 10.1102 14.9216 9.97344C15.2561 9.83664 15.6145 9.76783 15.976 9.77103H18.472V8.89303C18.479 8.69925 18.561 8.51577 18.7006 8.38118C18.8402 8.2466 19.0265 8.17139 19.2205 8.17139C19.4144 8.17139 19.6007 8.2466 19.7403 8.38118C19.8799 8.51577 19.9629 8.69925 19.9699 8.89303Z" fill="#8A8A8E"/>
<path d="M16.9226 7.02707C16.7259 7.02444 16.5381 6.94451 16.3998 6.80454C16.2615 6.66458 16.1839 6.47582 16.1836 6.27907V1.28908C16.1825 1.19115 16.2007 1.09395 16.2374 1.00313C16.274 0.912308 16.3283 0.829666 16.3972 0.759994C16.466 0.690323 16.548 0.635009 16.6384 0.597259C16.7287 0.559509 16.8257 0.540074 16.9236 0.540082C17.0227 0.539025 17.121 0.557611 17.2129 0.594766C17.3047 0.63192 17.3883 0.686908 17.4588 0.756551C17.5293 0.826194 17.5853 0.909112 17.6235 1.00052C17.6618 1.09192 17.6815 1.19 17.6816 1.28908V6.27907C17.679 6.47854 17.5979 6.66893 17.4558 6.80895C17.3137 6.94898 17.1221 7.02735 16.9226 7.02707Z" fill="#8A8A8E"/>
<path d="M19.8013 2.85499L17.8043 0.859999C17.6966 0.741402 17.5632 0.649041 17.4143 0.59C17.2686 0.530652 17.1127 0.50009 16.9553 0.5C16.8053 0.502 16.6553 0.532 16.5153 0.59C16.3708 0.656524 16.2392 0.747913 16.1263 0.859999L14.1293 2.85499C14.0598 2.92446 14.0047 3.00692 13.9671 3.09769C13.9295 3.18846 13.9102 3.28574 13.9102 3.38399C13.9102 3.48224 13.9295 3.57953 13.9671 3.67029C14.0047 3.76106 14.0598 3.84353 14.1293 3.91299C14.1983 3.9836 14.2806 4.0397 14.3715 4.07801C14.4625 4.11631 14.5601 4.13605 14.6588 4.13605C14.7575 4.13605 14.8552 4.11631 14.9461 4.07801C15.037 4.0397 15.1194 3.9836 15.1883 3.91299L16.1863 2.91499L16.9363 2.167L18.6933 3.92299C18.762 3.99353 18.8443 4.0494 18.9353 4.08722C19.0262 4.12503 19.1238 4.14401 19.2223 4.14299C19.3207 4.14332 19.4181 4.12404 19.509 4.08626C19.5998 4.04849 19.6822 3.99298 19.7513 3.92299C19.8257 3.85674 19.886 3.77631 19.9289 3.68642C19.9717 3.59653 19.9962 3.49898 20.0009 3.39951C20.0055 3.30003 19.9903 3.20062 19.956 3.10712C19.9217 3.01362 19.8691 2.9279 19.8013 2.85499Z" fill="#8A8A8E"/>
</svg>
