<svg width="18" height="18" viewBox="0 0 18 18" fill="none" xmlns="http://www.w3.org/2000/svg">
<path d="M13.2353 18C14.499 18 15.7109 17.498 16.6045 16.6045C17.498 15.7109 18 14.499 18 13.2353C18 11.9716 17.498 10.7597 16.6045 9.86614C15.7109 8.97258 14.499 8.47059 13.2353 8.47059C11.9716 8.47059 10.7597 8.97258 9.86614 9.86614C8.97258 10.7597 8.47059 11.9716 8.47059 13.2353C8.47059 14.499 8.97258 15.7109 9.86614 16.6045C10.7597 17.498 11.9716 18 13.2353 18ZM13.896 15.8876C13.8996 15.9767 13.8851 16.0656 13.8535 16.1489C13.8219 16.2322 13.7737 16.3083 13.712 16.3726C13.6502 16.4369 13.5761 16.488 13.4941 16.5229C13.4121 16.5579 13.3239 16.5759 13.2348 16.5759C13.1456 16.5759 13.0574 16.5579 12.9754 16.5229C12.8934 16.488 12.8193 16.4369 12.7576 16.3726C12.6958 16.3083 12.6477 16.2322 12.6161 16.1489C12.5844 16.0656 12.57 15.9767 12.5735 15.8876C12.5735 15.7121 12.6433 15.5438 12.7674 15.4197C12.8915 15.2956 13.0598 15.2259 13.2353 15.2259C13.4108 15.2259 13.5791 15.2956 13.7032 15.4197C13.8273 15.5438 13.8971 15.7121 13.8971 15.8876M15.1994 12.1267C15.1994 12.7472 14.9718 13.0881 14.4286 13.5233L14.1353 13.7499C13.8748 13.9553 13.7869 14.0675 13.7689 14.2242L13.7573 14.3894C13.7351 14.521 13.6641 14.6393 13.5585 14.7207C13.4528 14.8022 13.3203 14.8407 13.1875 14.8287C13.0546 14.8166 12.9312 14.7549 12.8419 14.6558C12.7526 14.5567 12.704 14.4275 12.7059 14.2941C12.7059 13.6906 12.9282 13.3581 13.464 12.9304L13.7584 12.7027C14.0633 12.4592 14.1395 12.3406 14.1395 12.1267C14.1395 11.5359 13.7351 11.1208 13.2353 11.1208C12.7122 11.1208 12.3258 11.5084 12.3311 12.1214C12.3318 12.1909 12.3187 12.2599 12.2928 12.3244C12.2668 12.3889 12.2284 12.4477 12.1797 12.4973C12.1311 12.547 12.0731 12.5865 12.0091 12.6138C11.9452 12.641 11.8765 12.6554 11.8069 12.6561C11.7374 12.6568 11.6684 12.6438 11.6039 12.6178C11.5394 12.5919 11.4807 12.5535 11.431 12.5048C11.3814 12.4561 11.3418 12.3982 11.3146 12.3342C11.2873 12.2702 11.2729 12.2015 11.2722 12.132C11.2616 10.9281 12.1256 10.062 13.2353 10.062C14.3269 10.062 15.1973 10.9578 15.1973 12.1267M7.41177 0C6.2885 0 5.21123 0.446217 4.41696 1.24049C3.62269 2.03476 3.17647 3.11202 3.17647 4.23529C3.17647 5.35856 3.62269 6.43583 4.41696 7.2301C5.21123 8.02437 6.2885 8.47059 7.41177 8.47059C8.53504 8.47059 9.6123 8.02437 10.4066 7.2301C11.2008 6.43583 11.6471 5.35856 11.6471 4.23529C11.6471 3.11202 11.2008 2.03476 10.4066 1.24049C9.6123 0.446217 8.53504 0 7.41177 0ZM2.12718 9.52941C1.84828 9.52816 1.57189 9.58201 1.31386 9.68787C1.05584 9.79372 0.821262 9.94951 0.62361 10.1463C0.425958 10.343 0.26912 10.5769 0.162103 10.8345C0.055086 11.092 -2.82374e-06 11.3682 1.08557e-10 11.6471C1.08557e-10 13.4375 0.882 14.7875 2.26059 15.6674C3.618 16.5325 5.44765 16.9412 7.41177 16.9412C7.84729 16.9412 8.27435 16.9211 8.69294 16.8808C7.86192 15.8477 7.40977 14.5612 7.41177 13.2353C7.41177 11.8271 7.91153 10.5353 8.74271 9.52941H2.12718Z" fill="#121212"/>
</svg>
