<svg width="21" height="24" viewBox="0 0 21 24" fill="none" xmlns="http://www.w3.org/2000/svg">
<path fill-rule="evenodd" clip-rule="evenodd" d="M10.4991 6C12.3619 5.99993 14.1523 6.72188 15.494 8.01416C16.8358 9.30644 17.6244 11.0685 17.6943 12.93L17.6991 13.2V21.6H18.8991C19.2049 21.6003 19.4991 21.7175 19.7215 21.9274C19.9439 22.1374 20.0777 22.4243 20.0957 22.7297C20.1136 23.035 20.0143 23.3357 19.8179 23.5702C19.6216 23.8047 19.3432 23.9555 19.0395 23.9916L18.8991 24H2.09906C1.79321 23.9997 1.49902 23.8825 1.27662 23.6726C1.05422 23.4626 0.920381 23.1757 0.902457 22.8703C0.884532 22.565 0.983873 22.2643 1.18018 22.0298C1.37649 21.7953 1.65495 21.6445 1.95866 21.6084L2.09906 21.6H3.29906V13.2C3.29906 11.2904 4.05763 9.45909 5.40789 8.10883C6.75816 6.75857 8.5895 6 10.4991 6ZM9.47066 11.9832L7.68146 14.964C7.57101 15.1479 7.51135 15.3579 7.50859 15.5724C7.50582 15.7869 7.56005 15.9983 7.66572 16.185C7.7714 16.3717 7.92474 16.527 8.11008 16.6351C8.29543 16.7431 8.50613 16.8 8.72066 16.8H10.1799L9.47066 17.982C9.31356 18.2545 9.2697 18.5777 9.34852 18.8822C9.42734 19.1866 9.62255 19.448 9.89212 19.61C10.1617 19.772 10.4841 19.8217 10.7899 19.7484C11.0958 19.6751 11.3606 19.4846 11.5275 19.218L13.3167 16.236C13.4271 16.0521 13.4868 15.8421 13.4895 15.6276C13.4923 15.4131 13.4381 15.2017 13.3324 15.015C13.2267 14.8283 13.0734 14.673 12.888 14.5649C12.7027 14.4569 12.492 14.4 12.2775 14.4H10.8183L11.5275 13.218C11.6846 12.9455 11.7284 12.6223 11.6496 12.3178C11.5708 12.0134 11.3756 11.752 11.106 11.59C10.8364 11.428 10.514 11.3783 10.2082 11.4516C9.90234 11.5249 9.6375 11.7154 9.47066 11.982V11.9832ZM2.74946 3.7668L2.86226 3.8664L3.71066 4.7148C3.92588 4.93075 4.05083 5.22052 4.06014 5.52526C4.06944 5.83 3.96241 6.12686 3.76076 6.35553C3.55912 6.58421 3.278 6.72757 2.97449 6.75648C2.67099 6.78539 2.36785 6.69769 2.12666 6.5112L2.01386 6.4116L1.16546 5.5632C0.950246 5.34725 0.825295 5.05748 0.815989 4.75274C0.806684 4.448 0.913721 4.15114 1.11536 3.92247C1.317 3.69379 1.59813 3.55043 1.90163 3.52152C2.20514 3.49261 2.50827 3.58031 2.74946 3.7668ZM19.8327 3.8664C20.0576 4.09143 20.184 4.3966 20.184 4.7148C20.184 5.033 20.0576 5.33817 19.8327 5.5632L18.9843 6.4116C18.8736 6.52621 18.7412 6.61763 18.5947 6.68052C18.4483 6.74341 18.2909 6.77652 18.1315 6.7779C17.9722 6.77929 17.8142 6.74892 17.6667 6.68859C17.5192 6.62825 17.3853 6.53915 17.2726 6.42647C17.1599 6.3138 17.0708 6.17982 17.0105 6.03235C16.9501 5.88487 16.9198 5.72685 16.9212 5.56752C16.9225 5.40818 16.9557 5.25072 17.0185 5.10431C17.0814 4.95791 17.1729 4.8255 17.2875 4.7148L18.1359 3.8664C18.3609 3.64143 18.6661 3.51506 18.9843 3.51506C19.3025 3.51506 19.6076 3.64143 19.8327 3.8664ZM10.4991 0C10.8173 0 11.1225 0.126428 11.3476 0.351472C11.5726 0.576515 11.6991 0.88174 11.6991 1.2V2.4C11.6991 2.71826 11.5726 3.02348 11.3476 3.24853C11.1225 3.47357 10.8173 3.6 10.4991 3.6C10.1808 3.6 9.87558 3.47357 9.65054 3.24853C9.42549 3.02348 9.29906 2.71826 9.29906 2.4V1.2C9.29906 0.88174 9.42549 0.576515 9.65054 0.351472C9.87558 0.126428 10.1808 0 10.4991 0Z" fill="#F2243E"/>
</svg>
