<svg width="23" height="24" viewBox="0 0 23 24" fill="none" xmlns="http://www.w3.org/2000/svg">
<path fill-rule="evenodd" clip-rule="evenodd" d="M0.700012 10.1004C0.700012 6.2628 0.700012 4.344 1.15361 3.6984C1.60601 3.054 3.40961 2.436 7.01801 1.2012L7.70561 0.966C9.58601 0.3216 10.5256 0 11.5 0C12.4744 0 13.414 0.3216 15.2944 0.966L15.982 1.2012C19.5904 2.436 21.394 3.054 21.8464 3.6984C22.3 4.344 22.3 6.264 22.3 10.1004V11.9892C22.3 18.7548 17.2132 22.0392 14.0212 23.4324C13.156 23.8104 12.724 24 11.5 24C10.276 24 9.84401 23.8104 8.97881 23.4324C5.78681 22.038 0.700012 18.756 0.700012 11.9892V10.1004ZM13.9 8.4C13.9 9.03652 13.6472 9.64697 13.1971 10.0971C12.747 10.5471 12.1365 10.8 11.5 10.8C10.8635 10.8 10.253 10.5471 9.80296 10.0971C9.35287 9.64697 9.10001 9.03652 9.10001 8.4C9.10001 7.76348 9.35287 7.15303 9.80296 6.70294C10.253 6.25286 10.8635 6 11.5 6C12.1365 6 12.747 6.25286 13.1971 6.70294C13.6472 7.15303 13.9 7.76348 13.9 8.4ZM11.5 18C16.3 18 16.3 16.926 16.3 15.6C16.3 14.274 14.152 13.2 11.5 13.2C8.84801 13.2 6.70001 14.274 6.70001 15.6C6.70001 16.926 6.70001 18 11.5 18Z" fill="#121212"/>
</svg>
