<svg width="25" height="22" viewBox="0 0 25 22" fill="none" xmlns="http://www.w3.org/2000/svg">
<path d="M20.7978 14.306C21.2787 13.4645 21.6393 12.5027 21.6393 11.4208C21.6393 8.4153 19.235 6.01093 16.2295 6.01093C13.224 6.01093 10.8197 8.4153 10.8197 11.4208C10.8197 14.4262 13.224 16.8306 16.2295 16.8306C17.3115 16.8306 18.2732 16.4699 19.1148 15.9891L22.6011 19.4754L24.2842 17.7924L20.7978 14.306ZM16.2295 14.4262C14.5464 14.4262 13.224 13.1038 13.224 11.4208C13.224 9.73771 14.5464 8.4153 16.2295 8.4153C17.9126 8.4153 19.235 9.73771 19.235 11.4208C19.235 13.1038 17.9126 14.4262 16.2295 14.4262ZM15.2678 19.1148C14.7869 19.5956 14.306 19.9563 13.8251 20.4372L12.0219 22L10.2186 20.4372C4.08743 14.9071 0 11.1803 0 6.61202C0 2.88525 2.88525 0 6.61202 0C8.65574 0 10.6995 0.961749 12.0219 2.52459C13.3443 0.961749 15.388 0 17.4317 0C21.1585 0 24.0437 2.88525 24.0437 6.61202C24.0437 7.45355 23.9235 8.17486 23.6831 9.01639C22.6011 5.89071 19.7158 3.60656 16.2295 3.60656C11.9016 3.60656 8.4153 7.0929 8.4153 11.4208C8.4153 15.388 11.4208 18.6339 15.2678 19.1148Z" fill="#121212"/>
</svg>
