<svg width="16" height="16" viewBox="0 0 16 16" fill="none" xmlns="http://www.w3.org/2000/svg">
<path d="M7.22206 0C6.16073 0 5.14287 0.421613 4.39239 1.17209C3.64191 1.92257 3.2203 2.94043 3.2203 4.00176C3.2203 5.0631 3.64191 6.08096 4.39239 6.83144C5.14287 7.58191 6.16073 8.00352 7.22206 8.00352C8.2834 8.00352 9.30126 7.58191 10.0517 6.83144C10.8022 6.08096 11.2238 5.0631 11.2238 4.00176C11.2238 2.94043 10.8022 1.92257 10.0517 1.17209C9.30126 0.421613 8.2834 0 7.22206 0ZM7.22206 8.80388C7.69534 8.80494 8.15527 8.83696 8.60187 8.89992C8.75206 8.92091 8.89319 8.98413 9.00883 9.08222C9.12448 9.18032 9.20987 9.30925 9.25508 9.454C9.30028 9.59875 9.30343 9.75336 9.26416 9.89983C9.22489 10.0463 9.14481 10.1786 9.03326 10.2813C8.37456 10.8848 7.87017 11.6373 7.56241 12.476C7.25464 13.3146 7.15248 14.2148 7.26448 15.1011C7.27862 15.2149 7.2681 15.3305 7.23365 15.44C7.19919 15.5494 7.1416 15.6502 7.06478 15.7354C6.98796 15.8207 6.89371 15.8884 6.78842 15.934C6.68313 15.9797 6.56925 16.0021 6.45453 15.9998C4.84582 15.9678 3.34115 15.827 2.21746 15.4828C1.65561 15.3107 1.12578 15.069 0.724001 14.7129C0.299014 14.3367 0.0188904 13.8301 0.0188904 13.2058C0.0188904 12.5759 0.305417 11.9869 0.694388 11.4939C1.08976 10.9936 1.6364 10.5334 2.27749 10.1413C3.56045 9.36012 5.30522 8.80388 7.22206 8.80388ZM15.3953 9.63144C15.7704 10.0067 15.9811 10.5155 15.9811 11.0461C15.9811 11.5766 15.7704 12.0855 15.3953 12.4607L12.6597 15.1963C12.4761 15.3798 12.2379 15.4989 11.981 15.5356L10.1329 15.7998C10.0098 15.8175 9.88418 15.8062 9.76613 15.7669C9.64808 15.7276 9.54082 15.6613 9.45287 15.5732C9.36492 15.4852 9.29871 15.3779 9.25949 15.2598C9.22027 15.1417 9.20913 15.0161 9.22695 14.893L9.49106 13.0457C9.52766 12.7885 9.64674 12.5501 9.83041 12.3662L12.566 9.63064C12.9412 9.25553 13.4501 9.04481 13.9806 9.04481C14.5112 9.04481 15.02 9.25553 15.3953 9.63064V9.63144Z" fill="#121212"/>
</svg>
