<svg width="24" height="25" viewBox="0 0 24 25" fill="none" xmlns="http://www.w3.org/2000/svg">
<path d="M10.4888 2.2179C10.6943 1.99207 10.9448 1.81165 11.2241 1.6882C11.5034 1.56474 11.8055 1.50098 12.1108 1.50098C12.4162 1.50098 12.7182 1.56474 12.9976 1.6882C13.2769 1.81165 13.5274 1.99207 13.7329 2.2179L14.8516 3.44626C15.0688 3.68471 15.3359 3.87232 15.6339 3.99573C15.9319 4.11914 16.2535 4.17531 16.5757 4.16024L18.2351 4.08347C18.54 4.0691 18.8446 4.11854 19.1293 4.22862C19.414 4.3387 19.6726 4.507 19.8886 4.72275C20.1045 4.9385 20.2731 5.19696 20.3834 5.48158C20.4938 5.7662 20.5435 6.07072 20.5295 6.37566L20.4516 8.03613C20.4365 8.35833 20.4927 8.67988 20.6161 8.97788C20.7395 9.27589 20.9271 9.54301 21.1656 9.76021L22.3939 10.8789C22.6197 11.0845 22.8002 11.3349 22.9236 11.6143C23.0471 11.8936 23.1108 12.1956 23.1108 12.501C23.1108 12.8064 23.0471 13.1084 22.9236 13.3877C22.8002 13.667 22.6197 13.9175 22.3939 14.1231L21.1656 15.2417C20.9271 15.4589 20.7395 15.7261 20.6161 16.0241C20.4927 16.3221 20.4365 16.6436 20.4516 16.9658L20.5284 18.6252C20.5427 18.9301 20.4933 19.2347 20.3832 19.5194C20.2731 19.8041 20.1048 20.0628 19.8891 20.2787C19.6733 20.4947 19.4149 20.6632 19.1302 20.7736C18.8456 20.8839 18.5411 20.9337 18.2362 20.9196L16.5757 20.8417C16.2535 20.8266 15.9319 20.8828 15.6339 21.0062C15.3359 21.1296 15.0688 21.3172 14.8516 21.5557L13.7329 22.784C13.5274 23.0099 13.2769 23.1903 12.9976 23.3138C12.7182 23.4372 12.4162 23.501 12.1108 23.501C11.8055 23.501 11.5034 23.4372 11.2241 23.3138C10.9448 23.1903 10.6943 23.0099 10.4888 22.784L9.37008 21.5557C9.15287 21.3172 8.88575 21.1296 8.58775 21.0062C8.28974 20.8828 7.96819 20.8266 7.646 20.8417L5.98662 20.9185C5.68169 20.9329 5.37713 20.8834 5.0924 20.7733C4.80767 20.6633 4.54906 20.495 4.3331 20.2792C4.11714 20.0634 3.94859 19.805 3.83824 19.5204C3.72789 19.2358 3.67816 18.9312 3.69223 18.6263L3.7701 16.9658C3.78517 16.6436 3.729 16.3221 3.60559 16.0241C3.48218 15.7261 3.29457 15.4589 3.05612 15.2417L1.82777 14.1231C1.60193 13.9175 1.42152 13.667 1.29806 13.3877C1.17461 13.1084 1.11084 12.8064 1.11084 12.501C1.11084 12.1956 1.17461 11.8936 1.29806 11.6143C1.42152 11.3349 1.60193 11.0845 1.82777 10.8789L3.05612 9.76021C3.29457 9.54301 3.48218 9.27589 3.60559 8.97788C3.729 8.67988 3.78517 8.35833 3.7701 8.03613L3.69333 6.37676C3.67896 6.07183 3.7284 5.76726 3.83848 5.48254C3.94856 5.19781 4.11686 4.93919 4.33261 4.72324C4.54837 4.50728 4.80682 4.33873 5.09144 4.22838C5.37606 4.11802 5.68058 4.06829 5.98552 4.08237L7.646 4.16024C7.96819 4.17531 8.28974 4.11914 8.58775 3.99573C8.88575 3.87232 9.15287 3.68471 9.37008 3.44626L10.4888 2.2179Z" fill="#485FE6" stroke="#485FE6" stroke-width="1.33333"/>
<path d="M8.81982 12.5011L11.0133 14.6946L15.4003 10.3076" stroke="white" stroke-width="1.33333" stroke-linecap="round" stroke-linejoin="round"/>
</svg>
