<svg width="19" height="17" viewBox="0 0 19 17" fill="none" xmlns="http://www.w3.org/2000/svg">
<path d="M10.1887 1.16837L17.883 14.4949C18.0003 14.6981 18.0621 14.9286 18.0621 15.1632C18.0621 15.3979 18.0003 15.6284 17.883 15.8316C17.7657 16.0348 17.5969 16.2036 17.3937 16.3209C17.1905 16.4382 16.96 16.5 16.7254 16.5H1.33672C1.10207 16.5 0.87156 16.4382 0.668353 16.3209C0.465146 16.2036 0.296402 16.0348 0.179082 15.8316C0.0617617 15.6284 -1.49025e-06 15.3979 0 15.1632C1.4903e-06 14.9286 0.0617676 14.6981 0.17909 14.4949L7.87342 1.16837C8.38762 0.277208 9.67358 0.277208 10.1887 1.16837ZM9.03105 11.7305C8.79469 11.7305 8.56802 11.8244 8.4009 11.9915C8.23377 12.1586 8.13988 12.3853 8.13988 12.6216C8.13988 12.858 8.23377 13.0847 8.4009 13.2518C8.56802 13.4189 8.79469 13.5128 9.03105 13.5128C9.2674 13.5128 9.49407 13.4189 9.6612 13.2518C9.82832 13.0847 9.92221 12.858 9.92221 12.6216C9.92221 12.3853 9.82832 12.1586 9.6612 11.9915C9.49407 11.8244 9.2674 11.7305 9.03105 11.7305ZM9.03105 5.49231C8.81277 5.49234 8.60209 5.57248 8.43898 5.71753C8.27586 5.86257 8.17166 6.06244 8.14612 6.27921L8.13988 6.38348V9.94815C8.14013 10.1753 8.22711 10.3938 8.38303 10.5589C8.53896 10.7241 8.75207 10.8235 8.97882 10.8368C9.20557 10.8501 9.42884 10.7763 9.60303 10.6305C9.77721 10.4848 9.88915 10.278 9.91597 10.0524L9.92221 9.94815V6.38348C9.92221 6.14713 9.82832 5.92046 9.6612 5.75333C9.49407 5.58621 9.2674 5.49231 9.03105 5.49231Z" fill="#F2243E"/>
</svg>
