<svg width="176" height="48" viewBox="0 0 176 48" fill="none" xmlns="http://www.w3.org/2000/svg">
<g clip-path="url(#clip0_6119_10559)">
<path d="M80.1796 33.7272L77.2062 21.1201H70.5459L67.5725 33.7272L64.5992 21.1201H59.6436L63.727 38.4053H70.9027L73.8761 25.8379L76.8494 38.4053H84.0251L88.0986 21.1201H83.1926L80.1796 33.7272Z" fill="url(#paint0_linear_6119_10559)"/>
<path d="M98.971 20.6844C97.2266 20.6844 95.6408 21.2394 94.3326 22.1909V14.5791H89.377V38.4057H94.3326V29.4063C94.3326 26.8294 95.5616 25.085 98.1385 25.085C100.715 25.085 101.944 26.8294 101.944 29.4063V38.4057H106.86V29.2477C106.86 24.2128 104.006 20.6844 98.971 20.6844Z" fill="url(#paint1_linear_6119_10559)"/>
<path d="M117.208 20.6846C112.212 20.6846 108.129 24.7283 108.129 29.7632C108.129 34.7981 112.212 38.8419 117.208 38.8419C122.203 38.8419 126.326 34.7981 126.326 29.7632C126.326 24.7283 122.242 20.6846 117.208 20.6846ZM117.208 34.4413C114.631 34.4413 112.569 32.3402 112.569 29.7632C112.569 27.1863 114.631 25.0851 117.208 25.0851C119.784 25.0851 121.886 27.1863 121.886 29.7632C121.886 32.3402 119.784 34.4413 117.208 34.4413Z" fill="url(#paint2_linear_6119_10559)"/>
<path d="M134.493 24.9662C136.198 25.0455 137.228 25.7988 137.664 26.7106L141.867 25.323C140.955 22.1911 137.744 20.6846 134.176 20.6846C130.608 20.6846 126.802 22.31 126.802 25.8384C126.802 32.8159 137.347 31.4283 136.673 33.8863C136.475 34.5999 135.088 34.8378 133.977 34.7188C132.59 34.5603 131.44 33.7277 130.964 32.6573L126.802 34.362C127.357 36.939 130.925 38.8419 134.453 38.8419C137.982 38.8419 141.867 37.0975 141.867 33.6881C141.867 26.9881 131.638 28.0585 131.995 25.8384C132.075 25.1644 133.066 24.9266 134.493 24.9662Z" fill="url(#paint3_linear_6119_10559)"/>
<path d="M150.43 24.9662C152.135 25.0455 153.166 25.7988 153.602 26.7106L157.804 25.323C156.892 22.1911 153.681 20.6846 150.113 20.6846C146.545 20.6846 142.739 22.31 142.739 25.8384C142.739 32.8159 153.285 31.4283 152.611 33.8863C152.413 34.5999 151.025 34.8378 149.915 34.7188C148.527 34.5603 147.378 33.7277 146.902 32.6573L142.739 34.362C143.294 36.939 146.862 38.8419 150.391 38.8419C153.919 38.8419 157.804 37.0975 157.804 33.6881C157.804 26.9881 147.576 28.0585 147.933 25.8384C148.012 25.1644 149.003 24.9266 150.43 24.9662Z" fill="url(#paint4_linear_6119_10559)"/>
<path d="M169.936 21.1201L166.17 33.8065L162.443 21.1201H157.487L162.601 38.4053H164.822L163.077 44.3124H168.033L174.891 21.1201H169.936Z" fill="url(#paint5_linear_6119_10559)"/>
<path d="M46.7287 25.769C46.4909 25.3131 46.2233 24.8869 45.916 24.4805C45.8169 24.3418 45.698 24.1931 45.5592 24.0147L37.3924 15.8479C36.5598 15.0153 35.4002 14.6288 34.201 14.8171C33.418 14.9361 32.7044 15.3424 32.1394 15.9073L31.2871 16.7597C30.8708 17.176 30.5636 17.6418 30.3852 18.1374C29.8896 19.4853 30.2266 21.0017 31.2276 22.0127L36.9166 27.7017C38.2547 29.0397 38.998 30.8336 38.998 32.7267C38.998 34.6197 38.2547 36.4137 36.9166 37.7517C35.8661 38.7923 34.2208 38.9311 33.0116 38.0688C31.5349 37.0083 29.7707 35.71 27.9272 34.2034C27.5704 33.9061 27.273 33.5691 26.9658 33.2718L26.4801 32.806C25.6278 31.9932 24.4583 31.6265 23.259 31.8446C22.5057 31.9833 21.8219 32.3798 21.2768 32.9249L20.4145 33.7872C18.6404 35.5712 15.1516 39.8033 13.2586 39.2978C13.2586 39.2978 13.2487 39.2978 13.2288 39.2978L13.1991 39.2879C12.3567 38.9311 11.6232 38.4256 10.9691 37.7814C9.62117 36.4335 8.88774 34.6495 8.88774 32.7465C8.88774 30.8435 9.59143 29.2677 11.0484 27.6323L33.2198 7.24495C34.647 5.81774 34.647 3.4886 33.2198 2.05148L32.2881 1.11982C31.8917 0.723373 31.4457 0.426037 30.96 0.247635C30.5338 0.0890553 30.0977 0.00976562 29.6517 0.00976562C28.6705 0.00976562 27.7488 0.396303 27.055 1.08018L4.81423 21.527L4.75476 21.5865C4.75476 21.5865 4.68538 21.6559 4.66556 21.6757C1.73184 24.9166 0.175781 28.7325 0.175781 32.7168C0.175781 36.9489 1.82104 40.9233 4.81423 43.9164C6.26127 45.3635 7.94617 46.5033 9.81939 47.2962C10.9096 47.762 12.0692 47.9899 13.2586 47.9899C16.4698 47.9899 19.4432 46.2654 21.9606 44.2435C23.1401 43.292 24.825 43.292 25.9945 44.2435C28.5813 46.3249 31.4952 47.9899 34.6767 47.9899C35.8462 47.9899 36.986 47.762 38.0663 47.3061C39.8107 46.5627 41.4461 45.4626 43.0616 43.9462C46.2827 40.9034 47.7496 37.1669 47.7496 31.7752C47.7496 27.8504 47.1648 26.78 46.7287 25.7789V25.769Z" fill="url(#paint6_linear_6119_10559)"/>
</g>
<defs>
<linearGradient id="paint0_linear_6119_10559" x1="59.6436" y1="29.4455" x2="174.891" y2="29.4455" gradientUnits="userSpaceOnUse">
<stop stop-color="#FF5C00"/>
<stop offset="1" stop-color="#F0174B"/>
</linearGradient>
<linearGradient id="paint1_linear_6119_10559" x1="59.6433" y1="29.4459" x2="174.891" y2="29.4459" gradientUnits="userSpaceOnUse">
<stop stop-color="#FF5C00"/>
<stop offset="1" stop-color="#F0174B"/>
</linearGradient>
<linearGradient id="paint2_linear_6119_10559" x1="59.6433" y1="29.4461" x2="174.891" y2="29.4461" gradientUnits="userSpaceOnUse">
<stop stop-color="#FF5C00"/>
<stop offset="1" stop-color="#F0174B"/>
</linearGradient>
<linearGradient id="paint3_linear_6119_10559" x1="59.6434" y1="29.4461" x2="174.891" y2="29.4461" gradientUnits="userSpaceOnUse">
<stop stop-color="#FF5C00"/>
<stop offset="1" stop-color="#F0174B"/>
</linearGradient>
<linearGradient id="paint4_linear_6119_10559" x1="59.6437" y1="29.4461" x2="174.891" y2="29.4461" gradientUnits="userSpaceOnUse">
<stop stop-color="#FF5C00"/>
<stop offset="1" stop-color="#F0174B"/>
</linearGradient>
<linearGradient id="paint5_linear_6119_10559" x1="59.6438" y1="29.4455" x2="174.891" y2="29.4455" gradientUnits="userSpaceOnUse">
<stop stop-color="#FF5C00"/>
<stop offset="1" stop-color="#F0174B"/>
</linearGradient>
<linearGradient id="paint6_linear_6119_10559" x1="0.175781" y1="23.9949" x2="47.7496" y2="23.9949" gradientUnits="userSpaceOnUse">
<stop stop-color="#FF5C00"/>
<stop offset="1" stop-color="#F2243E"/>
</linearGradient>
<clipPath id="clip0_6119_10559">
<rect width="175.339" height="48" fill="white" transform="translate(0.175781)"/>
</clipPath>
</defs>
</svg>
