<svg width="22" height="22" viewBox="0 0 22 22" fill="none" xmlns="http://www.w3.org/2000/svg">
<path fill-rule="evenodd" clip-rule="evenodd" d="M12.1957 21.3268L12.7919 20.3192C13.2539 19.5382 13.4849 19.1466 13.8567 18.931C14.2285 18.7143 14.696 18.7066 15.631 18.6901C17.0126 18.667 17.8783 18.5823 18.6043 18.2809C19.2716 18.0045 19.8779 17.5994 20.3886 17.0886C20.8994 16.5779 21.3045 15.9716 21.5809 15.3043C22 14.2945 22 13.013 22 10.45V9.35C22 5.7497 22 3.949 21.1893 2.6268C20.7361 1.88672 20.1141 1.26439 19.3743 0.8107C18.051 0 16.2503 0 12.65 0H9.35C5.7497 0 3.949 0 2.6268 0.8107C1.88672 1.26395 1.26439 1.88589 0.8107 2.6257C0 3.949 0 5.7508 0 9.35V10.45C0 13.013 1.36594e-07 14.2945 0.418 15.3043C0.694528 15.9717 1.09983 16.5781 1.61075 17.0888C2.12167 17.5995 2.7282 18.0046 3.3957 18.2809C4.1217 18.5823 4.9874 18.6659 6.369 18.6901C7.304 18.7066 7.7715 18.7143 8.1433 18.931C8.514 19.1466 8.7461 19.5371 9.2081 20.3192L9.8043 21.3268C10.3356 22.2244 11.6633 22.2244 12.1957 21.3268ZM6.05 8.4865C6.05 10.4137 8.4293 12.463 9.889 13.5388C10.3884 13.9073 10.6381 14.091 11 14.091C11.3619 14.091 11.6116 13.9073 12.111 13.5388C13.5707 12.463 15.95 10.4148 15.95 8.4865C15.95 5.5418 13.2275 4.4418 11 6.7166C8.7725 4.4418 6.05 5.5418 6.05 8.4865Z" fill="#121212"/>
</svg>
