<svg width="17" height="18" viewBox="0 0 17 18" fill="none" xmlns="http://www.w3.org/2000/svg">
<path fill-rule="evenodd" clip-rule="evenodd" d="M0.788352 17.5777C1.04776 17.837 1.39956 17.9827 1.76637 17.9827C2.13318 17.9827 2.48497 17.837 2.74438 17.5777L8.68302 11.639L14.6217 17.5777C14.7493 17.7098 14.9019 17.8152 15.0707 17.8877C15.2395 17.9602 15.421 17.9984 15.6047 17.9999C15.7883 18.0015 15.9705 17.9665 16.1405 17.897C16.3105 17.8274 16.4649 17.7247 16.5948 17.5948C16.7247 17.4649 16.8274 17.3105 16.897 17.1405C16.9665 16.9705 17.0015 16.7883 17 16.6046C16.9984 16.421 16.9602 16.2395 16.8877 16.0707C16.8152 15.9019 16.7098 15.7493 16.5777 15.6217L9.66103 8.705C9.40162 8.44567 9.04983 8.29998 8.68302 8.29998C8.31621 8.29998 7.96442 8.44567 7.705 8.705L0.788352 15.6217C0.529018 15.8811 0.383331 16.2329 0.383331 16.5997C0.383331 16.9665 0.529018 17.3183 0.788352 17.5777ZM0.788352 9.2777C1.04776 9.53704 1.39956 9.68272 1.76637 9.68272C2.13318 9.68272 2.48497 9.53704 2.74438 9.2777L8.68302 3.33906L14.6217 9.2777C14.8826 9.52969 15.232 9.66912 15.5947 9.66597C15.9574 9.66282 16.3044 9.51733 16.5608 9.26085C16.8173 9.00437 16.9628 8.65741 16.966 8.29471C16.9691 7.932 16.8297 7.58257 16.5777 7.32167L9.66103 0.405018C9.40162 0.145685 9.04983 0 8.68302 0C8.31621 0 7.96442 0.145685 7.705 0.405018L0.788352 7.32167C0.529018 7.58109 0.383331 7.93288 0.383331 8.29969C0.383331 8.6665 0.529018 9.01829 0.788352 9.2777Z" fill="#8A8A8E"/>
</svg>
