<svg width="22" height="22" viewBox="0 0 22 22" fill="none" xmlns="http://www.w3.org/2000/svg">
<path d="M8.07115 21.7079C8.88464 21.9021 9.71739 22 10.5534 22C11.3877 21.9993 12.2189 21.9007 13.0302 21.7063C13.2435 21.6549 13.4358 21.5391 13.5808 21.3745C13.7259 21.21 13.8167 21.0047 13.8409 20.7866L14.0269 19.0975C14.0585 18.7955 14.1968 18.5147 14.4168 18.3055C14.6369 18.0963 14.9244 17.9725 15.2276 17.9562C15.4294 17.9474 15.6302 17.9853 15.815 18.0662L17.3589 18.7433C17.4931 18.8037 17.6385 18.8354 17.7857 18.8364C17.9329 18.8373 18.0787 18.8075 18.2137 18.7488C18.3495 18.691 18.4711 18.6052 18.5712 18.4969C19.706 17.2729 20.5535 15.8112 21.0518 14.2182C21.1172 14.0069 21.1152 13.7804 21.0462 13.5703C20.9773 13.3601 20.8447 13.1765 20.6668 13.045L19.295 12.033C19.1316 11.9143 18.9987 11.7586 18.907 11.5787C18.8153 11.3988 18.7675 11.1997 18.7675 10.9978C18.7675 10.7959 18.8153 10.5968 18.907 10.4169C18.9987 10.237 19.1316 10.0813 19.295 9.96265L20.6624 8.9528C20.8408 8.8211 20.9737 8.63708 21.0428 8.42633C21.1118 8.21557 21.1134 7.98856 21.0474 7.77684C20.5498 6.18326 19.7012 4.72154 18.564 3.49927C18.4132 3.33856 18.2164 3.22849 18.0005 3.18417C17.7846 3.13985 17.5603 3.16346 17.3584 3.25176L15.815 3.9316C15.6555 4.00365 15.4817 4.0416 15.3057 4.0416C14.9889 4.04074 14.6836 3.9231 14.4482 3.71121C14.2127 3.49932 14.0637 3.20805 14.0296 2.89314L13.8426 1.21006C13.8184 0.989242 13.7259 0.781471 13.578 0.615727C13.4301 0.449982 13.2342 0.334527 13.0176 0.285464C12.2103 0.105399 11.3865 0.00973007 10.5595 0C9.72679 0.00991713 8.89736 0.105763 8.08435 0.286014C7.86784 0.334572 7.67192 0.449587 7.52399 0.614973C7.37606 0.780358 7.28352 0.987844 7.25931 1.20841L7.0723 2.89259C7.03677 3.20802 6.88641 3.49934 6.64988 3.71104C6.4082 3.91612 6.10374 4.03254 5.78689 4.04105C5.61211 4.04094 5.43925 4.0046 5.27921 3.93435L3.73914 3.25451C3.53656 3.16534 3.31127 3.14136 3.09447 3.1859C2.87767 3.23045 2.68008 3.34131 2.52908 3.50312C1.39379 4.7259 0.546246 6.18703 0.0484526 7.77959C-0.0173995 7.99123 -0.0157096 8.21813 0.0532877 8.42877C0.122285 8.63941 0.255165 8.82333 0.433472 8.955L1.80194 9.96485C2.0464 10.1455 2.21916 10.4068 2.28971 10.7025C2.36026 10.9981 2.32406 11.3092 2.18751 11.5808C2.09667 11.7609 1.96478 11.9171 1.80249 12.0368L0.432922 13.0483C0.254833 13.1799 0.122095 13.3636 0.0531077 13.574C-0.0158797 13.7845 -0.0176988 14.0111 0.0479027 14.2226C0.544315 15.8169 1.39199 17.2796 2.52853 18.5029C2.67865 18.6648 2.87551 18.7759 3.09171 18.8206C3.30791 18.8654 3.53268 18.8416 3.73474 18.7526L5.28471 18.0723C5.44477 18.0019 5.61748 17.9655 5.79239 17.9655H5.79679C6.11235 17.9662 6.41667 18.0828 6.65193 18.2931C6.88719 18.5034 7.03698 18.7928 7.07285 19.1063L7.25876 20.7877C7.28298 21.0061 7.374 21.2117 7.51939 21.3763C7.66479 21.541 7.85748 21.6568 8.07115 21.7079ZM10.5496 14.4377C9.63785 14.4377 8.76346 14.0755 8.11878 13.4308C7.47409 12.7861 7.11191 11.9117 7.11191 11C7.11191 10.0883 7.47409 9.21389 8.11878 8.5692C8.76346 7.92451 9.63785 7.56233 10.5496 7.56233C11.4613 7.56233 12.3357 7.92451 12.9804 8.5692C13.6251 9.21389 13.9872 10.0883 13.9872 11C13.9872 11.9117 13.6251 12.7861 12.9804 13.4308C12.3357 14.0755 11.4613 14.4377 10.5496 14.4377Z" fill="#121212"/>
</svg>
